<svg width="18" height="18" viewBox="0 0 18 18" fill="none" xmlns="http://www.w3.org/2000/svg">
<g clip-path="url(#clip0_1317_1058)">
<path d="M0 0H18V18H0V0Z" fill="white"/>
<path d="M16.5224 13.7054C16.3906 12.8842 15.8551 12.1946 14.269 11.5513C13.718 11.298 13.1037 11.1167 12.9207 10.6992C12.8556 10.4562 12.8471 10.3193 12.8882 10.1722C13.0062 9.6948 13.576 9.54594 14.0277 9.68282C14.3186 9.78035 14.5941 10.0045 14.76 10.3621C15.5368 9.85907 15.5351 9.86248 16.0775 9.51687C15.879 9.20888 15.773 9.06685 15.6429 8.93512C15.1758 8.41326 14.5393 8.14463 13.5212 8.16516C13.345 8.1874 13.1671 8.21134 12.9908 8.2336C12.4827 8.36193 11.9984 8.62885 11.7144 8.98645C10.8623 9.95318 11.1053 11.6454 12.1422 12.3418C13.1636 13.1083 14.6642 13.2828 14.8558 13.9998C15.0423 14.8775 14.2108 15.1615 13.3844 15.0606C12.7752 14.934 12.4365 14.6243 12.0703 14.0614C11.3962 14.4515 11.3962 14.4515 10.7032 14.8501C10.8675 15.2095 11.0403 15.372 11.3157 15.6834C12.6195 17.006 15.8825 16.941 16.4676 14.9391C16.4916 14.8707 16.649 14.4121 16.5224 13.7054ZM9.78094 8.27122H8.09728C8.09728 9.7256 8.09046 11.1697 8.09046 12.6241C8.09046 13.5497 8.13837 14.3984 7.9878 14.6585C7.74141 15.1701 7.1032 15.1068 6.81232 15.0075C6.51631 14.8621 6.36574 14.655 6.19122 14.3625C6.14331 14.2786 6.10738 14.2136 6.09538 14.2085C5.63856 14.4874 5.18341 14.768 4.72656 15.0469C4.95415 15.514 5.28949 15.9195 5.71896 16.183C6.36059 16.568 7.22295 16.686 8.12468 16.479C8.71156 16.3079 9.21801 15.9537 9.48322 15.4148C9.86649 14.7081 9.78436 13.8526 9.78094 12.9064C9.78949 11.363 9.78094 9.8197 9.78094 8.27122Z" fill="#0F0F0F"/>
</g>
<defs>
<clipPath id="clip0_1317_1058">
<rect width="18" height="18" fill="white"/>
</clipPath>
</defs>
</svg>
