<svg width="18" height="10" viewBox="0 0 18 10" fill="none" xmlns="http://www.w3.org/2000/svg">
<path d="M13.4174 3.01852L14.9174 0.45836C14.9576 0.387917 14.9681 0.304682 14.9465 0.226676C14.925 0.14867 14.8732 0.0821713 14.8023 0.0415751C14.7314 0.000978868 14.6472 -0.0104474 14.5678 0.00977002C14.4884 0.0299875 14.4204 0.0802217 14.3783 0.149597L12.8609 2.73978C11.6496 2.20269 10.3367 1.92499 9.0087 1.92499C7.68068 1.92499 6.36776 2.20269 5.15652 2.73978L3.63913 0.149597C3.59704 0.0802217 3.52894 0.0299875 3.44958 0.00977002C3.37022 -0.0104474 3.28597 0.000978868 3.21509 0.0415751C3.1442 0.0821713 3.09238 0.14867 3.07084 0.226676C3.0493 0.304682 3.05978 0.387917 3.1 0.45836L4.6 3.01852C2.01304 4.39938 0.256522 6.96812 0 10H18C17.7435 6.96812 15.9826 4.39938 13.4174 3.01852ZM4.86087 7.46986C4.71296 7.46986 4.56838 7.4266 4.4454 7.34555C4.32242 7.2645 4.22657 7.1493 4.16997 7.01452C4.11337 6.87975 4.09856 6.73144 4.12741 6.58836C4.15627 6.44528 4.22749 6.31385 4.33208 6.21069C4.43666 6.10754 4.56991 6.03729 4.71498 6.00883C4.86004 5.98037 5.0104 5.99498 5.14705 6.0508C5.2837 6.10663 5.40049 6.20117 5.48266 6.32247C5.56484 6.44377 5.6087 6.58637 5.6087 6.73226C5.6087 6.92788 5.52991 7.11549 5.38966 7.25382C5.24942 7.39215 5.05921 7.46986 4.86087 7.46986ZM13.1478 7.46986C12.9999 7.46986 12.8553 7.4266 12.7324 7.34555C12.6094 7.2645 12.5135 7.1493 12.4569 7.01452C12.4003 6.87975 12.3855 6.73144 12.4144 6.58836C12.4432 6.44528 12.5144 6.31385 12.619 6.21069C12.7236 6.10754 12.8569 6.03729 13.0019 6.00883C13.147 5.98037 13.2974 5.99498 13.434 6.0508C13.5707 6.10663 13.6874 6.20117 13.7696 6.32247C13.8518 6.44377 13.8957 6.58637 13.8957 6.73226C13.8957 6.92788 13.8169 7.11549 13.6766 7.25382C13.5364 7.39215 13.3462 7.46986 13.1478 7.46986Z" fill="#71D88D"/>
</svg>
