<svg width="16" height="18" viewBox="0 0 16 18" fill="none" xmlns="http://www.w3.org/2000/svg">
<path d="M15.7964 13.5C15.922 13.2826 16 13.0376 16 12.8176V5.18226C16 4.9623 15.9221 4.7174 15.7965 4.5L8 8.99998L15.7964 13.5Z" fill="#00599C"/>
<path d="M8.69238 17.835L15.3068 14.0173C15.4973 13.9073 15.6705 13.7174 15.796 13.5L7.99957 9L0.203125 13.5C0.328667 13.7174 0.501896 13.9074 0.69238 14.0173L7.30676 17.835C7.68778 18.0549 8.31136 18.0549 8.69238 17.835Z" fill="#004482"/>
<path d="M15.7965 4.49998C15.6709 4.28252 15.4977 4.09262 15.3072 3.98264L8.69281 0.164972C8.31179 -0.0549906 7.68821 -0.0549906 7.30719 0.164972L0.69281 3.98264C0.311739 4.20255 0 4.74242 0 5.18229V12.8177C0 13.0376 0.0779608 13.2826 0.203556 13.5L8 9L15.7965 4.49998Z" fill="#659AD2"/>
<path d="M7.98958 14.3276C5.04877 14.3276 2.65625 11.9358 2.65625 8.99585C2.65625 6.05589 5.04877 3.66406 7.98958 3.66406C9.8872 3.66406 11.657 4.68494 12.6082 6.32828L10.3001 7.66353C9.82399 6.84097 8.9386 6.32996 7.98958 6.32996C6.51915 6.32996 5.32292 7.52585 5.32292 8.99585C5.32292 10.4658 6.51915 11.6617 7.98958 11.6617C8.93871 11.6617 9.82409 11.1507 10.3002 10.328L12.6084 11.6632C11.6571 13.3067 9.88731 14.3276 7.98958 14.3276Z" fill="white"/>
<path d="M13.3247 8.70959H12.732V8.11719H12.1395V8.70959H11.5469V9.30199H12.1395V9.89445H12.732V9.30199H13.3247V8.70959Z" fill="white"/>
<path d="M15.5512 8.70959H14.9586V8.11719H14.3661V8.70959H13.7734V9.30199H14.3661V9.89445H14.9586V9.30199H15.5512V8.70959Z" fill="white"/>
</svg>
