<svg width="18" height="18" viewBox="0 0 18 18" fill="none" xmlns="http://www.w3.org/2000/svg">
<g clip-path="url(#clip0_1317_599)">
<path d="M8.99935 10.6783C9.92666 10.6783 10.6784 9.92307 10.6784 8.99148C10.6784 8.05989 9.92666 7.30469 8.99935 7.30469C8.07204 7.30469 7.32031 8.05989 7.32031 8.99148C7.32031 9.92307 8.07204 10.6783 8.99935 10.6783Z" fill="white"/>
<path fill-rule="evenodd" clip-rule="evenodd" d="M9.00015 5.55469C11.2545 5.55469 13.3487 5.87966 14.9277 6.42577C16.8303 7.08379 18 8.08116 18 8.98429C18 9.92541 16.7603 10.985 14.7173 11.665C13.1727 12.1791 11.1401 12.4475 9.00015 12.4475C6.80612 12.4475 4.7285 12.1956 3.1665 11.6594C1.19029 10.9808 0 9.90749 0 8.98429C0 8.08849 1.11686 7.09882 2.99263 6.44181C4.57756 5.88669 6.72349 5.55469 8.99985 5.55469H9.00015Z" stroke="white" stroke-width="0.803184"/>
<path fill-rule="evenodd" clip-rule="evenodd" d="M6.02789 7.27832C7.15412 5.31645 8.4805 3.65626 9.74027 2.55488C11.2581 1.2279 12.7025 0.708212 13.4812 1.15934C14.2928 1.6295 14.5871 3.23775 14.1529 5.35542C13.8249 6.95651 13.0405 8.8594 11.9715 10.7217C10.8754 12.6312 9.62028 14.3134 8.37768 15.4046C6.80531 16.7854 5.28514 17.2851 4.48908 16.8239C3.71662 16.3767 3.42122 14.9101 3.79179 12.9494C4.10489 11.2927 4.89065 9.25935 6.02752 7.27829L6.02789 7.27832Z" stroke="white" stroke-width="0.803184"/>
<path fill-rule="evenodd" clip-rule="evenodd" d="M6.03381 10.7319C4.9044 8.77223 4.13545 6.78828 3.81448 5.1418C3.42811 3.15801 3.70129 1.64125 4.47931 1.18881C5.29006 0.717276 6.82398 1.26426 8.43334 2.69986C9.65014 3.78522 10.8996 5.41788 11.9718 7.27848C13.071 9.18604 13.8949 11.1186 14.2154 12.7451C14.621 14.8033 14.2927 16.3759 13.4974 16.8384C12.7257 17.2872 11.3135 16.812 9.80777 15.5103C8.53552 14.4104 7.17437 12.711 6.03381 10.7318V10.7319Z" stroke="white" stroke-width="0.803184"/>
</g>
<defs>
<clipPath id="clip0_1317_599">
<rect width="18" height="18" fill="white"/>
</clipPath>
</defs>
</svg>
