<svg width="415" height="288" viewBox="0 0 415 288" fill="none" xmlns="http://www.w3.org/2000/svg">
<path d="M261.748 34.3672L315.341 87.9601L327.065 99.634L406.703 127.182L341.44 61.865L261.748 34.3672Z" fill="#0F0F0F" stroke="white" stroke-width="0.795016" stroke-linecap="round" stroke-linejoin="round"/>
<path d="M73.5637 34.3672L127.161 87.9601L167.681 128.435L193.727 102.385L153.256 61.865L73.5637 34.3672Z" fill="#0F0F0F" stroke="white" stroke-width="0.795016" stroke-linecap="round" stroke-linejoin="round"/>
<path d="M232.935 193.778L312.656 221.243L406.703 127.196L327.065 99.6484L232.935 193.778Z" fill="#0F0F0F" stroke="white" stroke-width="0.795016" stroke-linecap="round" stroke-linejoin="round"/>
<path d="M232.935 193.773L327.065 287.82L406.703 315.368L312.698 221.28L312.656 221.238L232.935 193.773Z" fill="#0F0F0F" stroke="white" stroke-width="0.795016" stroke-linecap="round" stroke-linejoin="round"/>
<path d="M261.748 353.129L341.44 380.627L406.703 315.36L327.065 287.812L261.748 353.129Z" fill="#0F0F0F" stroke="white" stroke-width="0.795016" stroke-linecap="round" stroke-linejoin="round"/>
<path d="M102.366 193.747L8.30214 287.811L73.5648 353.128L99.6641 327.032L167.682 259.01L221.275 312.607L261.746 353.128L327.062 287.811L232.945 193.747L327.062 99.634L315.339 87.9601L261.746 34.3672L167.682 128.435L127.162 87.9601L73.5648 34.3672L8.30214 99.634L102.366 193.747Z" stroke="white" stroke-width="0.795016" stroke-linecap="round" stroke-linejoin="round"/>
<path d="M73.5708 353.141L153.263 380.639L221.281 312.621L167.688 259.023L99.6701 327.046L73.5708 353.141Z" fill="#0F0F0F" stroke="white" stroke-width="0.795016" stroke-linecap="round" stroke-linejoin="round"/>
</svg>
