<svg width="424" height="544" viewBox="0 0 424 544" fill="none" xmlns="http://www.w3.org/2000/svg">
<g clip-path="url(#clip0_909_633)">
<path d="M287.045 51.6129L250.401 97.455L235.029 116.634L154.881 127.611L206.927 62.6394L287.045 51.6129Z" stroke="white" stroke-width="0.770848" stroke-linecap="round" stroke-linejoin="round"/>
<path d="M287.052 51.6203L527.669 244.18L336.784 481.726L293.391 447.001L268.168 426.827L406.54 253.921L235.036 116.641L250.408 97.4625L287.052 51.6203Z" stroke="white" stroke-width="0.770848" stroke-linecap="round" stroke-linejoin="round"/>
<path d="M406.535 253.914L268.164 426.82L191.698 440.732L330.07 267.827L406.535 253.914Z" fill="#0F0F0F" stroke="white" stroke-width="0.770848" stroke-linecap="round" stroke-linejoin="round"/>
<path d="M235.023 116.632L406.527 253.912L330.062 267.824L154.875 127.609L235.023 116.632Z" fill="#0F0F0F" stroke="white" stroke-width="0.770848" stroke-linecap="round" stroke-linejoin="round"/>
<path d="M268.169 426.838L293.391 447.012L336.784 481.737L256.717 492.805L191.703 440.75L268.169 426.838Z" stroke="white" stroke-width="0.770848" stroke-linecap="round" stroke-linejoin="round"/>
</g>
<defs>
<clipPath id="clip0_909_633">
<rect width="386.944" height="386.944" fill="white" transform="translate(0 301.625) rotate(-51.2155)"/>
</clipPath>
</defs>
</svg>
