<svg width="127" height="24" viewBox="0 0 127 24" fill="none" xmlns="http://www.w3.org/2000/svg">
<mask id="mask0_962_5165" style="mask-type:luminance" maskUnits="userSpaceOnUse" x="0" y="0" width="25" height="24">
<path fill-rule="evenodd" clip-rule="evenodd" d="M0 0H24.0719V24H0V0Z" fill="white"/>
</mask>
<g mask="url(#mask0_962_5165)">
<rect width="24.0719" height="24" rx="3.29447" fill="#734EE1"/>
<path fill-rule="evenodd" clip-rule="evenodd" d="M3.89062 6.80632H8.13861V2.50781H3.89062V6.80632Z" fill="white"/>
<path fill-rule="evenodd" clip-rule="evenodd" d="M9.91406 8.59538H14.162V4.29688H9.91406V8.59538Z" fill="white"/>
<path fill-rule="evenodd" clip-rule="evenodd" d="M5.66406 12.8923H9.91205V8.59375H5.66406V12.8923Z" fill="white"/>
<path fill-rule="evenodd" clip-rule="evenodd" d="M14.1562 17.1969H18.4042V12.8984H14.1562V17.1969Z" fill="white"/>
<path fill-rule="evenodd" clip-rule="evenodd" d="M14.1562 8.59538H18.4042V4.29688H14.1562V8.59538Z" fill="white"/>
<path fill-rule="evenodd" clip-rule="evenodd" d="M9.91406 17.1969H14.162V12.8984H9.91406V17.1969Z" fill="white"/>
<path fill-rule="evenodd" clip-rule="evenodd" d="M5.66406 21.4938H9.91205V17.1953H5.66406V21.4938Z" fill="white"/>
<path fill-rule="evenodd" clip-rule="evenodd" d="M14.1562 12.8923H18.4042V8.59375H14.1562V12.8923Z" fill="white"/>
<path fill-rule="evenodd" clip-rule="evenodd" d="M5.66406 17.1969H9.91205V12.8984H5.66406V17.1969Z" fill="white"/>
</g>
<path fill-rule="evenodd" clip-rule="evenodd" d="M126.994 17.9998V21.1107H114.039V4.35938H126.683V7.47021H117.887V11.1081H125.655V14.1233H117.887V17.9998H126.994ZM99.4688 4.35938H103.303V17.9516H111.613V21.1107H99.4688V4.35938ZM88.9353 13.3473C90.1271 13.3473 91.0331 13.0825 91.6541 12.553C92.2743 12.0235 92.5852 11.2709 92.5852 10.2961C92.5852 9.30327 92.2743 8.54333 91.6541 8.01301C91.0331 7.4835 90.1271 7.21875 88.9353 7.21875H85.7031V13.3473H88.9353ZM89.3365 4.35938C90.8254 4.35938 92.1176 4.60697 93.2139 5.10133C94.311 5.5957 95.1547 6.29762 95.7473 7.20709C96.3392 8.11657 96.6363 9.19355 96.6363 10.4381C96.6363 11.6662 96.3392 12.7391 95.7473 13.6568C95.1547 14.5736 94.311 15.2763 93.2139 15.7625C92.1176 16.2487 90.8254 16.4922 89.3365 16.4922H85.9513V21.1107H82.0625V4.35938H89.3365ZM75.179 10.283C75.179 9.29509 74.8681 8.53761 74.2479 8.00974C73.6269 7.48269 72.7208 7.21875 71.529 7.21875H68.2969V13.3473H71.529C72.7208 13.3473 73.6269 13.0793 74.2479 12.544C74.8681 12.008 75.179 11.2546 75.179 10.283ZM74.7333 21.1107L71.5594 16.4448H68.0577V21.1107H64.2499V4.35938H71.3716C72.829 4.35938 74.0945 4.60697 75.1681 5.10133C76.2417 5.5957 77.0683 6.29762 77.6481 7.20709C78.2278 8.11657 78.5176 9.19355 78.5176 10.4381C78.5176 11.6825 78.2237 12.7554 77.6359 13.6568C77.0481 14.5581 76.2142 15.2477 75.1325 15.7266L78.8237 21.1107H74.7333ZM53.1143 21.5192C50.7517 21.5192 48.913 20.8525 47.5981 19.5189C46.2833 18.1853 45.625 16.2814 45.625 13.8071V4.35938H49.4531V13.6625C49.4531 16.6834 50.6813 18.1935 53.1378 18.1935C54.3353 18.1935 55.2486 17.8282 55.8785 17.0969C56.5084 16.3656 56.8242 15.2207 56.8242 13.6625V4.35938H60.6045V13.8071C60.6045 16.2814 59.9462 18.1853 58.6313 19.5189C57.3156 20.8525 55.4769 21.5192 53.1143 21.5192ZM35.4986 13.3473C36.6904 13.3473 37.5964 13.0825 38.2174 12.553C38.8376 12.0235 39.1477 11.2709 39.1477 10.2961C39.1477 9.30327 38.8376 8.54333 38.2174 8.01301C37.5964 7.4835 36.6904 7.21875 35.4986 7.21875H32.2656V13.3473H35.4986ZM35.4935 4.35938C36.9825 4.35938 38.2747 4.60697 39.371 5.10133C40.468 5.5957 41.3117 6.29762 41.9044 7.20709C42.4962 8.11657 42.7926 9.19355 42.7926 10.4381C42.7926 11.6662 42.4962 12.7391 41.9044 13.6568C41.3117 14.5736 40.468 15.2763 39.371 15.7625C38.2747 16.2487 36.9825 16.4922 35.4935 16.4922H32.1083V21.1107H28.2188V4.35938H35.4935Z" fill="#734EE1"/>
<mask id="mask1_962_5165" style="mask-type:luminance" maskUnits="userSpaceOnUse" x="0" y="0" width="25" height="24">
<path fill-rule="evenodd" clip-rule="evenodd" d="M0 0H24.0719V24H0V0Z" fill="white"/>
</mask>
<g mask="url(#mask1_962_5165)">
<rect width="24.0719" height="24" rx="3.29447" fill="#734EE1"/>
<path fill-rule="evenodd" clip-rule="evenodd" d="M3.89062 6.80632H8.13861V2.50781H3.89062V6.80632Z" fill="white"/>
<path fill-rule="evenodd" clip-rule="evenodd" d="M9.9086 8.59727H14.1566V4.29876H9.9086V8.59727Z" fill="white"/>
<path fill-rule="evenodd" clip-rule="evenodd" d="M5.66059 12.896H9.90858L9.9086 8.59727L5.66059 8.59752V12.896Z" fill="white"/>
<path fill-rule="evenodd" clip-rule="evenodd" d="M14.1566 17.1944H18.4046V12.8959H14.1566V17.1944Z" fill="white"/>
<path fill-rule="evenodd" clip-rule="evenodd" d="M14.1566 8.59727H18.4046V4.29876H14.1566V8.59727Z" fill="white"/>
<path fill-rule="evenodd" clip-rule="evenodd" d="M9.9086 17.1944H14.1566V12.8959L9.90858 12.896L9.9086 17.1944Z" fill="white"/>
<path fill-rule="evenodd" clip-rule="evenodd" d="M5.66059 21.4931H9.90858L9.9086 17.1944L5.66059 17.1946V21.4931Z" fill="white"/>
<path fill-rule="evenodd" clip-rule="evenodd" d="M14.1566 12.8959H18.4046V8.59727H14.1566L14.1566 12.8959Z" fill="white"/>
<path fill-rule="evenodd" clip-rule="evenodd" d="M5.66059 17.1946L9.9086 17.1944L9.90858 12.896H5.66059V17.1946Z" fill="white"/>
</g>
</svg>
