<svg width="150" height="80" viewBox="0 0 150 80" fill="none" xmlns="http://www.w3.org/2000/svg">
<path d="M57.9078 23.1898C57.643 23.0518 57.3781 22.9958 57.1133 23.0218C55.0338 23.2168 53.4719 23.9818 52.6112 25.9798C52.3724 26.5318 52.3493 27.1098 52.542 27.7138C52.8148 28.5678 53.18 29.1508 53.6374 29.4628C54.3677 29.9628 55.2936 30.4108 56.4151 30.8068C57.2196 31.0908 57.8606 31.4748 58.3381 31.9588C58.9581 32.5888 58.8949 34.9738 58.1335 35.4508C56.7491 36.3148 54.8382 36.2428 53.4899 35.2948C52.8981 34.8808 52.1888 34.6108 51.3622 34.4848C51.294 34.4728 51.2308 34.4858 51.1727 34.5238C50.7242 34.8148 50.661 35.4838 51.0703 35.8618C51.5398 36.2978 52.0213 36.6028 52.5149 36.7768C53.2492 37.0318 53.9293 37.3948 54.6967 37.5148C55.6236 37.6588 56.4502 37.6618 57.1765 37.5238C59.1346 37.1538 60.2822 35.9308 60.6193 33.8548C60.7557 33.0188 60.6634 32.3488 60.3424 31.8448C59.4456 30.4408 57.4503 29.4688 55.756 28.8838C54.468 28.4368 53.7367 26.9968 54.5131 25.7668C54.9284 25.1098 56.4181 24.0838 57.339 24.6208C57.7904 24.8848 58.289 25.1298 58.8347 25.3558C58.9121 25.3874 58.9981 25.3916 59.0786 25.3676C59.159 25.3436 59.229 25.2929 59.2771 25.2238L59.4908 24.9118C59.561 24.8098 59.569 24.7028 59.5148 24.5908C59.2841 24.1028 58.9621 23.7488 58.5488 23.5288C58.3281 23.4108 58.1144 23.2978 57.9078 23.1898Z" stroke="white" stroke-width="1.09756"/>
<path d="M94.3507 34.5418C93.9274 34.4918 93.7328 34.2558 93.7669 33.8338C93.9394 31.7598 94.0889 29.7908 94.2153 27.9268C94.2775 27.0428 94.3978 26.1828 94.5764 25.3468C94.7931 24.3388 93.5743 23.9638 93.1078 24.7528C92.7748 25.3148 92.6152 26.0128 92.6293 26.8468C92.6473 27.9178 92.3765 28.9018 92.3464 29.9758C92.3123 31.2318 92.2491 32.4598 92.1568 33.6598C92.1408 33.8538 92.1478 34.0488 92.1779 34.2448C92.2531 34.7308 92.0665 35.1778 92.4337 35.5918C92.6704 35.8598 92.9974 36.0078 93.4148 36.0358C95.2766 36.1598 97.0783 36.2758 98.8197 36.3838C98.9099 36.3892 99.0002 36.3749 99.0843 36.3417C99.1683 36.3086 99.244 36.2574 99.306 36.1919C99.368 36.1263 99.4148 36.048 99.4431 35.9625C99.4714 35.8769 99.4805 35.7862 99.4698 35.6968L99.4096 35.2078C99.3955 35.0898 99.3323 35.0138 99.22 34.9798C98.4014 34.7338 97.5578 34.6298 96.689 34.6678C95.8043 34.7098 95.1512 34.6318 94.3507 34.5418Z" stroke="white" stroke-width="1.09756"/>
<path d="M87.6152 25.2364C87.4076 24.5044 86.1105 24.4474 86.0112 25.3474C85.949 25.9394 85.935 26.4964 85.9691 27.0184C86.0654 28.4344 85.9089 29.9074 85.8216 31.3114C85.7353 32.7154 85.3371 33.7474 84.6269 34.4074C83.3539 35.5894 81.4188 35.2864 80.7868 33.6364C79.9201 31.3654 79.884 28.4434 80.0977 25.9534C80.1639 25.1734 79.0955 24.8794 78.5719 25.3504C78.4956 25.4184 78.4495 25.5034 78.4334 25.6054C78.3763 25.9864 78.2469 26.2864 78.2679 26.6914C78.3883 29.0314 78.2739 31.3534 79.0383 33.6154C79.4175 34.7494 80.3023 36.2644 81.5843 36.6184C82.4721 36.8614 83.5284 37.0414 84.3801 36.6154C85.7705 35.9174 86.6743 34.9374 87.0916 33.6754C87.5691 32.2254 87.7737 30.7094 87.7055 29.1274C87.6734 28.4334 87.6885 27.7394 87.7507 27.0454C87.8109 26.3674 87.7657 25.7644 87.6152 25.2364Z" stroke="white" stroke-width="1.09756"/>
<path d="M67.7148 25.1699C65.0635 26.3699 64.0253 29.1269 64.0313 32.0759C64.0343 33.3119 64.6151 34.3949 65.4186 35.2679C66.2553 36.1759 67.3667 36.6479 68.7531 36.6839C71.3894 36.7519 73.2482 35.6779 74.3296 33.4619C74.9796 32.1329 74.8111 30.2909 74.4801 28.9289C74.0678 27.2399 72.7165 25.0499 70.8146 24.8069C69.6228 24.6529 68.5896 24.7739 67.7148 25.1699Z" stroke="white" stroke-width="1.09756"/>
<path d="M94.5337 52.1753L94.6481 47.8283C94.6492 47.7835 94.6594 47.7394 94.678 47.6986C94.6966 47.6578 94.7233 47.6212 94.7565 47.591C94.7897 47.5607 94.8286 47.5374 94.871 47.5225C94.9134 47.5076 94.9583 47.5014 95.0032 47.5043C96.4196 47.5903 97.796 47.5303 99.1322 47.3243C99.5174 47.2643 99.707 47.0403 99.7009 46.6523C99.7009 46.5763 99.6999 46.5003 99.6979 46.4243C99.6939 46.0563 99.5063 45.8693 99.1352 45.8633C97.8251 45.8453 96.4397 45.9423 94.9791 46.1543C94.8587 46.1723 94.7905 46.1223 94.7745 46.0043C94.5999 44.7423 94.7133 43.5123 95.1146 42.3143C95.1567 42.1903 95.2419 42.1203 95.3704 42.1043L99.7762 41.5283C100.171 41.4763 100.327 41.2553 100.243 40.8653L100.152 40.4543C100.078 40.1083 99.8624 39.9443 99.5053 39.9623C98.0628 40.0403 96.3785 40.2843 94.4525 40.6943C94.1656 40.7543 93.9308 40.8333 93.7483 40.9313C93.66 40.9793 93.5988 41.0513 93.5647 41.1473C93.3861 41.6453 93.2577 42.1383 93.1795 42.6263C93.0089 43.6923 92.9397 44.7983 92.9718 45.9443C92.9999 46.9483 92.9728 47.9463 92.8906 48.9383C92.7642 50.4423 92.8083 52.0453 93.023 53.7473C93.037 53.8593 93.0962 53.9383 93.2005 53.9843C94.1636 54.4073 95.1115 54.0743 96.1137 54.1613C97.4098 54.2753 98.8232 54.3103 100.354 54.2663C101.287 54.2393 101.943 53.4263 101.121 52.6313C101.051 52.5633 100.966 52.5303 100.866 52.5323C100.256 52.5523 99.6257 52.5843 98.9757 52.6283C98.3898 52.6683 97.7809 52.6623 97.1489 52.6103C96.3564 52.5463 95.5569 52.4823 94.7504 52.4183C94.6019 52.4063 94.5297 52.3253 94.5337 52.1753Z" stroke="white" stroke-width="1.09756"/>
<path d="M69.4193 50.3243C70.0031 50.0523 70.6201 49.8693 71.2701 49.7753C72.3194 49.6213 73.4108 49.5163 74.5444 49.4603C74.6738 49.4536 74.8018 49.4901 74.9085 49.5639C75.0151 49.6377 75.0945 49.7447 75.1342 49.8683L76.35 53.6843C76.4965 54.1443 76.8085 54.3393 77.286 54.2693C77.3903 54.2533 77.4896 54.2193 77.5839 54.1673C77.8588 54.0133 77.9541 53.7843 77.8698 53.4803C77.4445 51.9403 76.959 50.3753 76.4132 48.7853C76.1905 48.1283 75.6819 47.5493 75.3991 46.8983C74.6607 45.1943 73.6506 43.3133 72.3686 41.2553C72.2141 41.0073 71.9904 40.8523 71.6974 40.7903C71.2179 40.6903 70.8829 40.8943 70.6923 41.4023C70.3582 42.2933 69.8858 43.0733 69.5969 43.9823C69.2759 44.9923 68.9167 45.9943 68.5195 46.9883C68.2346 47.7003 68.0169 48.7223 67.8664 50.0543C67.8022 50.6203 67.7079 51.1503 67.5835 51.6443C67.4571 52.1563 67.3518 52.6803 67.2676 53.2163C67.2194 53.5203 67.3498 53.6733 67.6588 53.6753L68.059 53.6783C68.354 53.6783 68.5345 53.5363 68.6007 53.2523L69.2508 50.5313C69.2728 50.4333 69.329 50.3643 69.4193 50.3243Z" stroke="white" stroke-width="1.09756"/>
<path d="M61.7351 45.269C61.9077 46.403 62.0331 47.589 62.1113 48.827C62.2197 50.535 62.3882 52.108 62.6169 53.546C62.633 53.64 62.6871 53.702 62.7794 53.732C63.2047 53.866 63.5759 53.809 63.8929 53.561C63.9952 53.481 64.0494 53.377 64.0554 53.249C64.0775 52.771 64.0675 52.374 64.0253 52.058C63.911 51.182 63.8267 50.305 63.7725 49.427C63.7003 48.215 63.4204 47.078 63.3512 45.887C63.281 44.703 63.1024 43.562 62.8155 42.464C62.8032 42.4148 62.7806 42.3686 62.749 42.3283C62.7174 42.288 62.6775 42.2545 62.6319 42.23C62.335 42.072 62.009 42.035 61.6539 42.119C61.5636 42.141 61.4904 42.19 61.4342 42.266C60.1421 43.992 58.9043 45.595 57.7205 47.075C57.6182 47.203 57.4948 47.302 57.3504 47.372C57.3143 47.3892 57.273 47.3919 57.2353 47.3796C57.1976 47.3673 57.1666 47.3409 57.1487 47.306C56.1576 45.334 54.9759 43.421 53.6036 41.567C53.2004 41.027 52.1139 40.973 51.9725 41.756C51.6555 43.506 51.4519 45.194 51.3616 46.82C51.3044 47.789 51.0185 48.707 51.0456 49.67C51.0596 50.226 51.0135 50.794 50.9072 51.374C50.7747 52.084 50.7537 52.799 50.844 53.519C50.9363 54.245 51.3526 54.461 52.0929 54.167C52.2193 54.115 52.2915 54.021 52.3096 53.885C52.454 52.749 52.5614 51.607 52.6316 50.459C52.767 48.221 53.0168 46.493 53.3418 44.453C53.394 44.135 53.4973 44.117 53.6518 44.399C54.5145 45.957 55.4594 47.492 56.4867 49.004C56.5736 49.1311 56.6881 49.2372 56.8217 49.3144C56.9553 49.3916 57.1045 49.438 57.2584 49.4501C57.4123 49.4622 57.567 49.4397 57.711 49.3843C57.8551 49.3289 57.9848 49.242 58.0907 49.13C58.9002 48.272 59.6135 47.291 60.4712 46.445C60.8283 46.093 61.1373 45.681 61.3981 45.209C61.5706 44.897 61.683 44.917 61.7351 45.269Z" stroke="white" stroke-width="1.09756"/>
<path d="M85.4298 43.3085C86.3466 43.0365 87.2404 42.9935 88.1112 43.1795C88.5957 43.2815 88.9719 43.2485 89.4504 43.1885C89.5286 43.1785 89.5838 43.1375 89.6159 43.0655C89.8165 42.6195 89.8045 42.2275 89.5798 41.8895C89.5176 41.7935 89.4283 41.7405 89.3119 41.7305C87.7811 41.5925 86.7088 41.5395 86.0949 41.5715C84.3875 41.6595 82.4223 41.9545 80.1994 42.4565C79.764 42.5545 79.5634 42.8255 79.5975 43.2695C79.6015 43.3435 79.6175 43.4155 79.6456 43.4855C79.758 43.7835 79.9736 43.9135 80.2926 43.8755L83.3713 43.5125C83.4173 43.507 83.4637 43.5186 83.5015 43.5452C83.5393 43.5718 83.5658 43.6115 83.576 43.6565C83.7294 44.3255 83.9581 44.9975 83.9672 45.6845C83.9812 47.0165 84.0364 48.3565 84.1327 49.7045C84.217 50.9015 83.8769 51.9605 84.0695 53.1905C84.0963 53.3626 84.1899 53.5173 84.3301 53.6211C84.4703 53.725 84.6459 53.7697 84.8188 53.7455C85.1098 53.7055 85.3515 53.5665 85.5441 53.3285C85.6043 53.2545 85.6424 53.1705 85.6585 53.0765C85.7066 52.8185 85.7387 52.5615 85.7548 52.3055C85.9233 49.3175 85.7538 46.4165 85.2462 43.6025C85.2354 43.5396 85.2482 43.475 85.282 43.4208C85.3158 43.3666 85.3684 43.3267 85.4298 43.3085Z" stroke="white" stroke-width="1.09756"/>
<path d="M70.0579 28.2228L69.8803 27.8688C69.8362 27.7768 69.771 27.7038 69.6847 27.6498C67.9723 26.5728 65.8326 27.4428 65.7092 29.5818C65.5828 31.7988 67.4457 33.7368 69.2032 34.8888C69.3115 34.9608 69.4229 34.9638 69.5372 34.8978C71.367 33.8628 74.1898 31.6698 73.8618 29.4438C73.5909 27.6108 71.7221 27.0888 70.3167 28.2768C70.2083 28.3688 70.1221 28.3508 70.0579 28.2228Z" stroke="white" stroke-width="1.09756"/>
<path d="M71.5763 43.1343C71.3236 43.5443 71.1229 43.9653 70.9745 44.3973C70.5551 45.6253 70.1198 46.9003 69.6684 48.2223C69.5741 48.4963 69.6674 48.5963 69.9482 48.5223C70.4498 48.3863 71.0015 48.3043 71.6034 48.2763C72.3257 48.2403 73.0911 48.1813 73.8996 48.0993C74 48.0893 74.0441 48.0343 74.0321 47.9343C73.9538 47.3383 73.7632 46.7773 73.4603 46.2513C72.8925 45.2693 72.3558 44.2363 71.8502 43.1523C71.77 42.9763 71.6787 42.9703 71.5763 43.1343Z" stroke="white" stroke-width="1.09756"/>
<path d="M98.7724 17H100.557C101.099 17.162 101.658 17.114 102.143 17.255C102.977 17.495 103.624 17.762 104.126 18.509C104.329 18.813 104.478 19.142 104.575 19.496C105.905 24.414 106.565 29.23 106.555 33.944C106.543 39.636 106.597 43.419 106.717 45.293C106.886 47.935 107.141 50.457 107.482 52.859C107.588 53.617 107.685 54.377 107.774 55.139V55.994C107.669 56.494 107.607 56.997 107.587 57.503C107.561 58.141 107.29 58.504 106.774 58.592C95.9245 60.454 84.4073 61.54 72.2231 61.85C70.7184 61.888 69.2147 61.938 67.7119 62H62.0331C57.8259 61.912 53.6237 61.76 49.4266 61.544C47.8356 61.462 46.4713 61.207 45.3337 60.779C43.831 60.215 42.876 59.11 42.4688 57.464V56.603C42.6293 55.947 42.6714 55.046 42.5951 53.9C42.5731 53.582 42.6162 52.808 42.7246 51.578C43.2342 45.83 43.7949 40.054 44.4068 34.25C44.7339 31.146 44.8613 27.448 44.789 23.156C44.78 22.559 44.9154 21.977 44.9997 21.386C45.0318 21.158 45.095 20.93 45.1893 20.702C45.5685 19.78 46.2837 19.07 47.335 18.572C49.0965 17.74 50.9614 17.369 52.9296 17.459C57.853 17.687 62.7434 17.789 67.5976 17.723C71.2952 17.673 75.0309 17.605 78.8047 17.519C80.6204 17.477 82.3278 17.49 83.9268 17.558C85.5298 17.624 87.2412 17.707 89.0609 17.807C90.8887 17.905 92.7365 17.805 94.6043 17.507C95.9846 17.285 97.374 17.116 98.7724 17ZM57.9162 23.189C57.6514 23.051 57.3866 22.995 57.1217 23.021C55.0422 23.216 53.4803 23.981 52.6196 25.979C52.3808 26.531 52.3578 27.109 52.5504 27.713C52.8232 28.567 53.1884 29.15 53.6458 29.462C54.3761 29.962 55.302 30.41 56.4235 30.806C57.2281 31.09 57.8691 31.474 58.3466 31.958C58.9665 32.588 58.9033 34.973 58.1419 35.45C56.7576 36.314 54.8466 36.242 53.4984 35.294C52.9065 34.88 52.1973 34.61 51.3707 34.484C51.3025 34.472 51.2393 34.485 51.1811 34.523C50.7327 34.814 50.6695 35.483 51.0788 35.861C51.5482 36.297 52.0297 36.602 52.5233 36.776C53.2576 37.031 53.9377 37.394 54.7051 37.514C55.632 37.658 56.4586 37.661 57.1849 37.523C59.1431 37.153 60.2907 35.93 60.6277 33.854C60.7641 33.018 60.6719 32.348 60.3509 31.844C59.454 30.44 57.4588 29.468 55.7645 28.883C54.4764 28.436 53.7451 26.996 54.5216 25.766C54.9369 25.109 56.4265 24.083 57.3474 24.62C57.7988 24.884 58.2974 25.129 58.8431 25.355C58.9205 25.3866 59.0065 25.3908 59.087 25.3668C59.1674 25.3428 59.2375 25.2921 59.2855 25.223L59.4992 24.911C59.5694 24.809 59.5774 24.702 59.5233 24.59C59.2925 24.102 58.9705 23.748 58.5572 23.528C58.3365 23.41 58.1229 23.297 57.9162 23.189ZM94.3515 34.544C93.9282 34.494 93.7336 34.258 93.7677 33.836C93.9402 31.762 94.0897 29.793 94.2161 27.929C94.2783 27.045 94.3987 26.185 94.5772 25.349C94.7939 24.341 93.5751 23.966 93.1086 24.755C92.7756 25.317 92.6161 26.015 92.6301 26.849C92.6482 27.92 92.3773 28.904 92.3472 29.978C92.3131 31.234 92.2499 32.462 92.1576 33.662C92.1416 33.856 92.1486 34.051 92.1787 34.247C92.2539 34.733 92.0674 35.18 92.4345 35.594C92.6712 35.862 92.9983 36.01 93.4156 36.038C95.2774 36.162 97.0791 36.278 98.8205 36.386C98.9107 36.3915 99.0011 36.3771 99.0851 36.344C99.1691 36.3108 99.2448 36.2597 99.3068 36.1941C99.3688 36.1286 99.4156 36.0503 99.4439 35.9647C99.4722 35.8792 99.4813 35.7885 99.4706 35.699L99.4104 35.21C99.3964 35.092 99.3331 35.016 99.2208 34.982C98.4022 34.736 97.5586 34.632 96.6899 34.67C95.8051 34.712 95.152 34.634 94.3515 34.544ZM87.6164 25.241C87.4087 24.509 86.1117 24.452 86.0124 25.352C85.9502 25.944 85.9361 26.501 85.9702 27.023C86.0665 28.439 85.91 29.912 85.8228 31.316C85.7365 32.72 85.3382 33.752 84.628 34.412C83.355 35.594 81.42 35.291 80.788 33.641C79.9212 31.37 79.8851 28.448 80.0988 25.958C80.165 25.178 79.0967 24.884 78.573 25.355C78.4968 25.423 78.4506 25.508 78.4346 25.61C78.3774 25.991 78.248 26.291 78.2691 26.696C78.3894 29.036 78.2751 31.358 79.0395 33.62C79.4187 34.754 80.3034 36.269 81.5855 36.623C82.4733 36.866 83.5296 37.046 84.3812 36.62C85.7716 35.922 86.6754 34.942 87.0927 33.68C87.5702 32.23 87.7749 30.714 87.7067 29.132C87.6746 28.438 87.6896 27.744 87.7518 27.05C87.812 26.372 87.7669 25.769 87.6164 25.241ZM67.724 25.172C65.0727 26.372 64.0344 29.129 64.0404 32.078C64.0434 33.314 64.6243 34.397 65.4278 35.27C66.2644 36.178 67.3759 36.65 68.7622 36.686C71.3985 36.754 73.2573 35.68 74.3387 33.464C74.9888 32.135 74.8202 30.293 74.4892 28.931C74.0769 27.242 72.7257 25.052 70.8237 24.809C69.632 24.655 68.5987 24.776 67.724 25.172ZM94.5411 52.175L94.6555 47.828C94.6566 47.7832 94.6668 47.7391 94.6854 47.6983C94.704 47.6575 94.7307 47.6209 94.7639 47.5907C94.797 47.5604 94.836 47.5372 94.8784 47.5223C94.9208 47.5074 94.9657 47.5012 95.0106 47.504C96.427 47.59 97.8033 47.53 99.1395 47.324C99.5247 47.264 99.7143 47.04 99.7083 46.652C99.7083 46.576 99.7073 46.5 99.7053 46.424C99.7013 46.056 99.5137 45.869 99.1426 45.863C97.8324 45.845 96.4471 45.942 94.9865 46.154C94.8661 46.172 94.7979 46.122 94.7819 46.004C94.6073 44.742 94.7207 43.512 95.1219 42.314C95.1641 42.19 95.2493 42.12 95.3777 42.104L99.7836 41.528C100.179 41.476 100.334 41.255 100.25 40.865L100.16 40.454C100.086 40.108 99.8698 39.944 99.5127 39.962C98.0702 40.04 96.3859 40.284 94.4599 40.694C94.173 40.754 93.9382 40.833 93.7556 40.931C93.6674 40.979 93.6062 41.051 93.5721 41.147C93.3935 41.645 93.2651 42.138 93.1869 42.626C93.0163 43.692 92.9471 44.798 92.9792 45.944C93.0073 46.948 92.9802 47.946 92.898 48.938C92.7716 50.442 92.8157 52.045 93.0304 53.747C93.0444 53.859 93.1036 53.938 93.2079 53.984C94.171 54.407 95.1189 54.074 96.1211 54.161C97.4171 54.275 98.8306 54.31 100.361 54.266C101.294 54.239 101.95 53.426 101.129 52.631C101.059 52.563 100.973 52.53 100.873 52.532C100.263 52.552 99.6331 52.584 98.9831 52.628C98.3972 52.668 97.7883 52.662 97.1563 52.61C96.3638 52.546 95.5643 52.482 94.7578 52.418C94.6093 52.406 94.5371 52.325 94.5411 52.175ZM69.4243 50.324C70.0081 50.052 70.6251 49.869 71.2751 49.775C72.3244 49.621 73.4158 49.516 74.5494 49.46C74.6788 49.4534 74.8068 49.4898 74.9135 49.5636C75.0202 49.6374 75.0995 49.7444 75.1392 49.868L76.3551 53.684C76.5015 54.144 76.8135 54.339 77.291 54.269C77.3953 54.253 77.4946 54.219 77.5889 54.167C77.8638 54.013 77.9591 53.784 77.8748 53.48C77.4495 51.94 76.964 50.375 76.4183 48.785C76.1956 48.128 75.687 47.549 75.4041 46.898C74.6658 45.194 73.6556 43.313 72.3736 41.255C72.2191 41.007 71.9954 40.852 71.7025 40.79C71.223 40.69 70.8879 40.894 70.6973 41.402C70.3633 42.293 69.8908 43.073 69.6019 43.982C69.2809 44.992 68.9217 45.994 68.5245 46.988C68.2396 47.7 68.0219 48.722 67.8714 50.054C67.8072 50.62 67.7129 51.15 67.5886 51.644C67.4622 52.156 67.3568 52.68 67.2726 53.216C67.2244 53.52 67.3548 53.673 67.6638 53.675L68.0641 53.678C68.359 53.678 68.5395 53.536 68.6057 53.252L69.2558 50.531C69.2779 50.433 69.334 50.364 69.4243 50.324ZM61.7412 45.269C61.9138 46.403 62.0391 47.589 62.1174 48.827C62.2257 50.535 62.3943 52.108 62.623 53.546C62.639 53.64 62.6932 53.702 62.7855 53.732C63.2108 53.866 63.582 53.809 63.899 53.561C64.0013 53.481 64.0555 53.377 64.0615 53.249C64.0836 52.771 64.0735 52.374 64.0314 52.058C63.917 51.182 63.8328 50.305 63.7786 49.427C63.7064 48.215 63.4265 47.078 63.3573 45.887C63.2871 44.703 63.1085 43.562 62.8216 42.464C62.8093 42.4148 62.7867 42.3686 62.7551 42.3283C62.7234 42.288 62.6836 42.2545 62.638 42.23C62.3411 42.072 62.0151 42.035 61.66 42.119C61.5697 42.141 61.4964 42.19 61.4403 42.266C60.1482 43.992 58.9103 45.595 57.7266 47.075C57.6243 47.203 57.5009 47.302 57.3565 47.372C57.3203 47.3892 57.279 47.392 57.2414 47.3796C57.2037 47.3673 57.1726 47.3409 57.1548 47.306C56.1637 45.334 54.982 43.421 53.6097 41.567C53.2064 41.027 52.12 40.973 51.9786 41.756C51.6616 43.506 51.458 45.194 51.3677 46.82C51.3105 47.789 51.0246 48.707 51.0517 49.67C51.0657 50.226 51.0196 50.794 50.9132 51.374C50.7808 52.084 50.7598 52.799 50.85 53.519C50.9423 54.245 51.3586 54.461 52.099 54.167C52.2254 54.115 52.2976 54.021 52.3156 53.885C52.4601 52.749 52.5674 51.607 52.6377 50.459C52.7731 48.221 53.0229 46.493 53.3479 44.453C53.4 44.135 53.5034 44.117 53.6579 44.399C54.5206 45.957 55.4655 47.492 56.4927 49.004C56.5797 49.1312 56.6942 49.2372 56.8278 49.3144C56.9613 49.3916 57.1106 49.438 57.2645 49.4501C57.4184 49.4622 57.5731 49.4397 57.7171 49.3843C57.8612 49.3289 57.9909 49.242 58.0968 49.13C58.9063 48.272 59.6196 47.291 60.4772 46.445C60.8344 46.093 61.1433 45.681 61.4042 45.209C61.5767 44.897 61.6891 44.917 61.7412 45.269ZM85.4315 43.307C86.3484 43.035 87.2422 42.992 88.1129 43.178C88.5975 43.28 88.9736 43.247 89.4521 43.187C89.5304 43.177 89.5856 43.136 89.6177 43.064C89.8183 42.618 89.8063 42.226 89.5816 41.888C89.5194 41.792 89.4301 41.739 89.3137 41.729C87.7829 41.591 86.7105 41.538 86.0966 41.57C84.3893 41.658 82.4241 41.953 80.2011 42.455C79.7658 42.553 79.5651 42.824 79.5992 43.268C79.6033 43.342 79.6193 43.414 79.6474 43.484C79.7597 43.782 79.9754 43.912 80.2944 43.874L83.3731 43.511C83.419 43.5054 83.4654 43.5171 83.5032 43.5437C83.5411 43.5703 83.5676 43.61 83.5777 43.655C83.7312 44.324 83.9599 44.996 83.9689 45.683C83.983 47.015 84.0382 48.355 84.1345 49.703C84.2187 50.9 83.8787 51.959 84.0713 53.189C84.098 53.3611 84.1916 53.5157 84.3319 53.6196C84.4721 53.7234 84.6476 53.7681 84.8206 53.744C85.1115 53.704 85.3533 53.565 85.5459 53.327C85.6061 53.253 85.6442 53.169 85.6603 53.075C85.7084 52.817 85.7405 52.56 85.7566 52.304C85.9251 49.316 85.7556 46.415 85.248 43.601C85.2372 43.5381 85.25 43.4735 85.2838 43.4193C85.3176 43.3651 85.3702 43.3252 85.4315 43.307Z" fill="white"/>
<path d="M58.5566 23.5288C58.9699 23.7488 59.2919 24.1028 59.5226 24.5908C59.5768 24.7028 59.5688 24.8098 59.4986 24.9118L59.2849 25.2238C59.2368 25.2929 59.1668 25.3436 59.0864 25.3676C59.0059 25.3916 58.9199 25.3874 58.8425 25.3558C58.2968 25.1298 57.7982 24.8848 57.3468 24.6208C56.4259 24.0838 54.9362 25.1098 54.5209 25.7668C53.7445 26.9968 54.4758 28.4368 55.7638 28.8838C57.4582 29.4688 59.4534 30.4408 60.3502 31.8448C60.6712 32.3488 60.7635 33.0188 60.6271 33.8548C60.29 35.9308 59.1424 37.1538 57.1843 37.5238C56.458 37.6618 55.6314 37.6588 54.7045 37.5148C53.9371 37.3948 53.257 37.0318 52.5227 36.7768C52.0291 36.6028 51.5476 36.2978 51.0781 35.8618C50.6689 35.4838 50.7321 34.8148 51.1805 34.5238C51.2386 34.4858 51.3018 34.4728 51.3701 34.4848C52.1967 34.6108 52.9059 34.8808 53.4977 35.2948C54.846 36.2428 56.757 36.3148 58.1413 35.4508C58.9027 34.9738 58.9659 32.5888 58.3459 31.9588C57.8684 31.4748 57.2274 31.0908 56.4229 30.8068C55.3014 30.4108 54.3755 29.9628 53.6452 29.4628C53.1878 29.1508 52.8226 28.5678 52.5498 27.7138C52.3572 27.1098 52.3802 26.5318 52.619 25.9798C53.4797 23.9818 55.0416 23.2168 57.1211 23.0218C57.3859 22.9958 57.6508 23.0518 57.9156 23.1898C58.1222 23.2978 58.3359 23.4108 58.5566 23.5288Z" fill="#0F0F0F"/>
<path d="M94.3507 34.5418C95.1512 34.6318 95.8043 34.7098 96.689 34.6678C97.5578 34.6298 98.4014 34.7338 99.22 34.9798C99.3323 35.0138 99.3955 35.0898 99.4096 35.2078L99.4698 35.6968C99.4805 35.7862 99.4714 35.8769 99.4431 35.9625C99.4148 36.048 99.368 36.1263 99.306 36.1919C99.244 36.2574 99.1683 36.3086 99.0843 36.3417C99.0002 36.3749 98.9099 36.3892 98.8197 36.3838C97.0783 36.2758 95.2766 36.1598 93.4148 36.0358C92.9974 36.0078 92.6704 35.8598 92.4337 35.5918C92.0665 35.1778 92.2531 34.7308 92.1779 34.2448C92.1478 34.0488 92.1408 33.8538 92.1568 33.6598C92.2491 32.4598 92.3123 31.2318 92.3464 29.9758C92.3765 28.9018 92.6473 27.9178 92.6293 26.8468C92.6152 26.0128 92.7748 25.3148 93.1078 24.7528C93.5743 23.9638 94.7931 24.3388 94.5764 25.3468C94.3978 26.1828 94.2775 27.0428 94.2153 27.9268C94.0889 29.7908 93.9394 31.7598 93.7669 33.8338C93.7328 34.2558 93.9274 34.4918 94.3507 34.5418Z" fill="#0F0F0F"/>
<path d="M86.0112 25.3474C86.1105 24.4474 87.4076 24.5044 87.6152 25.2364C87.7657 25.7644 87.8109 26.3674 87.7507 27.0454C87.6885 27.7394 87.6734 28.4334 87.7055 29.1274C87.7737 30.7094 87.5691 32.2254 87.0916 33.6754C86.6743 34.9374 85.7705 35.9174 84.3801 36.6154C83.5284 37.0414 82.4721 36.8614 81.5843 36.6184C80.3023 36.2644 79.4175 34.7494 79.0383 33.6154C78.2739 31.3534 78.3883 29.0314 78.2679 26.6914C78.2469 26.2864 78.3763 25.9864 78.4334 25.6054C78.4495 25.5034 78.4956 25.4184 78.5719 25.3504C79.0955 24.8794 80.1639 25.1734 80.0977 25.9534C79.884 28.4434 79.9201 31.3654 80.7868 33.6364C81.4188 35.2864 83.3539 35.5894 84.6269 34.4074C85.3371 33.7474 85.7353 32.7154 85.8216 31.3114C85.9089 29.9074 86.0654 28.4344 85.9691 27.0184C85.935 26.4964 85.949 25.9394 86.0112 25.3474Z" fill="#0F0F0F"/>
<path d="M64.0391 32.0759C64.0331 29.1269 65.0713 26.3699 67.7226 25.1699C68.5974 24.7739 69.6306 24.6529 70.8224 24.8069C72.7243 25.0499 74.0756 27.2399 74.4879 28.9289C74.8189 30.2909 74.9874 32.1329 74.3374 33.4619C73.256 35.6779 71.3972 36.7519 68.7609 36.6839C67.3746 36.6479 66.2631 36.1759 65.4264 35.2679C64.6229 34.3949 64.0421 33.3119 64.0391 32.0759ZM70.061 28.2179L69.8834 27.8639C69.8393 27.7719 69.7741 27.6989 69.6878 27.6449C67.9754 26.5679 65.8357 27.4379 65.7123 29.5769C65.5859 31.7939 67.4488 33.7319 69.2063 34.8839C69.3146 34.9559 69.426 34.9589 69.5403 34.8929C71.3701 33.8579 74.1929 31.6649 73.8649 29.4389C73.5941 27.6059 71.7252 27.0839 70.3198 28.2719C70.2115 28.3639 70.1252 28.3459 70.061 28.2179Z" fill="#0F0F0F"/>
<path d="M70.3167 28.2768C71.7221 27.0888 73.5909 27.6108 73.8618 29.4438C74.1898 31.6698 71.367 33.8628 69.5372 34.8978C69.4229 34.9638 69.3115 34.9608 69.2032 34.8888C67.4457 33.7368 65.5828 31.7988 65.7092 29.5818C65.8326 27.4428 67.9723 26.5728 69.6847 27.6498C69.771 27.7038 69.8362 27.7768 69.8803 27.8688L70.0579 28.2228C70.1221 28.3508 70.2083 28.3688 70.3167 28.2768Z" fill="white"/>
<path d="M94.7582 52.4183C95.5648 52.4823 96.3643 52.5463 97.1567 52.6103C97.7887 52.6623 98.3976 52.6683 98.9835 52.6283C99.6335 52.5843 100.263 52.5523 100.873 52.5323C100.974 52.5303 101.059 52.5633 101.129 52.6313C101.951 53.4263 101.295 54.2393 100.362 54.2663C98.831 54.3103 97.4176 54.2753 96.1215 54.1613C95.1194 54.0743 94.1714 54.4073 93.2084 53.9843C93.104 53.9383 93.0448 53.8593 93.0308 53.7473C92.8161 52.0453 92.772 50.4423 92.8984 48.9383C92.9806 47.9463 93.0077 46.9483 92.9796 45.9443C92.9475 44.7983 93.0168 43.6923 93.1873 42.6263C93.2655 42.1383 93.3939 41.6453 93.5725 41.1473C93.6066 41.0513 93.6678 40.9793 93.7561 40.9313C93.9386 40.8333 94.1734 40.7543 94.4603 40.6943C96.3863 40.2843 98.0706 40.0403 99.5131 39.9623C99.8703 39.9443 100.086 40.1083 100.16 40.4543L100.25 40.8653C100.335 41.2553 100.179 41.4763 99.784 41.5283L95.3782 42.1043C95.2498 42.1203 95.1645 42.1903 95.1224 42.3143C94.7211 43.5123 94.6077 44.7423 94.7823 46.0043C94.7983 46.1223 94.8666 46.1723 94.9869 46.1543C96.4475 45.9423 97.8329 45.8453 99.143 45.8633C99.5141 45.8693 99.7017 46.0563 99.7057 46.4243C99.7077 46.5003 99.7088 46.5763 99.7088 46.6523C99.7148 47.0403 99.5252 47.2643 99.14 47.3243C97.8038 47.5303 96.4275 47.5903 95.011 47.5043C94.9662 47.5014 94.9212 47.5076 94.8788 47.5225C94.8364 47.5374 94.7975 47.5607 94.7643 47.591C94.7312 47.6212 94.7045 47.6578 94.6858 47.6986C94.6672 47.7394 94.657 47.7835 94.6559 47.8283L94.5415 52.1753C94.5375 52.3253 94.6098 52.4063 94.7582 52.4183Z" fill="#0F0F0F"/>
<path d="M69.2586 50.5313L68.6085 53.2523C68.5423 53.5363 68.3618 53.6783 68.0668 53.6783L67.6666 53.6753C67.3576 53.6733 67.2272 53.5203 67.2754 53.2163C67.3596 52.6803 67.465 52.1563 67.5914 51.6443C67.7157 51.1503 67.81 50.6203 67.8742 50.0543C68.0247 48.7223 68.2424 47.7003 68.5273 46.9883C68.9245 45.9943 69.2837 44.9923 69.6047 43.9823C69.8936 43.0733 70.3661 42.2933 70.7001 41.4023C70.8907 40.8943 71.2258 40.6903 71.7053 40.7903C71.9982 40.8523 72.2219 41.0073 72.3764 41.2553C73.6584 43.3133 74.6686 45.1943 75.4069 46.8983C75.6898 47.5493 76.1984 48.1283 76.4211 48.7853C76.9668 50.3753 77.4523 51.9403 77.8776 53.4803C77.9619 53.7843 77.8666 54.0133 77.5917 54.1673C77.4974 54.2193 77.3981 54.2533 77.2938 54.2693C76.8163 54.3393 76.5043 54.1443 76.3579 53.6843L75.142 49.8683C75.1023 49.7447 75.023 49.6377 74.9163 49.5639C74.8096 49.4901 74.6816 49.4536 74.5522 49.4603C73.4186 49.5163 72.3272 49.6213 71.2779 49.7753C70.6279 49.8693 70.0109 50.0523 69.4271 50.3243C69.3368 50.3643 69.2807 50.4333 69.2586 50.5313ZM71.5879 43.1363C71.3351 43.5463 71.1345 43.9673 70.986 44.3993C70.5667 45.6273 70.1313 46.9023 69.6799 48.2243C69.5856 48.4983 69.6789 48.5983 69.9598 48.5243C70.4614 48.3883 71.0131 48.3063 71.615 48.2783C72.3372 48.2423 73.1026 48.1833 73.9112 48.1013C74.0115 48.0913 74.0556 48.0363 74.0436 47.9363C73.9654 47.3403 73.7748 46.7793 73.4718 46.2533C72.904 45.2713 72.3673 44.2383 71.8618 43.1543C71.7815 42.9783 71.6902 42.9723 71.5879 43.1363Z" fill="#0F0F0F"/>
<path d="M61.7429 45.269C61.6908 44.917 61.5784 44.897 61.4059 45.209C61.1451 45.681 60.8361 46.093 60.479 46.445C59.6213 47.291 58.9081 48.272 58.0985 49.13C57.9926 49.242 57.8629 49.3289 57.7188 49.3843C57.5748 49.4397 57.4201 49.4622 57.2662 49.4501C57.1123 49.438 56.9631 49.3916 56.8295 49.3144C56.6959 49.2372 56.5815 49.1311 56.4945 49.004C55.4673 47.492 54.5223 45.957 53.6596 44.399C53.5051 44.117 53.4018 44.135 53.3496 44.453C53.0246 46.493 52.7748 48.221 52.6394 50.459C52.5692 51.607 52.4618 52.749 52.3174 53.885C52.2993 54.021 52.2271 54.115 52.1007 54.167C51.3604 54.461 50.9441 54.245 50.8518 53.519C50.7615 52.799 50.7826 52.084 50.915 51.374C51.0213 50.794 51.0675 50.226 51.0534 49.67C51.0263 48.707 51.3122 47.789 51.3694 46.82C51.4597 45.194 51.6633 43.506 51.9803 41.756C52.1218 40.973 53.2082 41.027 53.6114 41.567C54.9837 43.421 56.1654 45.334 57.1566 47.306C57.1744 47.3409 57.2054 47.3673 57.2431 47.3796C57.2808 47.3919 57.3221 47.3892 57.3582 47.372C57.5026 47.302 57.626 47.203 57.7284 47.075C58.9121 45.595 60.1499 43.992 61.442 42.266C61.4982 42.19 61.5714 42.141 61.6617 42.119C62.0168 42.035 62.3428 42.072 62.6398 42.23C62.6853 42.2545 62.7252 42.288 62.7568 42.3283C62.7884 42.3686 62.8111 42.4148 62.8233 42.464C63.1102 43.562 63.2888 44.703 63.359 45.887C63.4282 47.078 63.7081 48.215 63.7803 49.427C63.8345 50.305 63.9188 51.182 64.0331 52.058C64.0753 52.374 64.0853 52.771 64.0632 53.249C64.0572 53.377 64.003 53.481 63.9007 53.561C63.5837 53.809 63.2126 53.866 62.7872 53.732C62.6949 53.702 62.6408 53.64 62.6247 53.546C62.396 52.108 62.2275 50.535 62.1191 48.827C62.0409 47.589 61.9155 46.403 61.7429 45.269Z" fill="#0F0F0F"/>
<path d="M85.4298 43.3085C85.3684 43.3267 85.3158 43.3666 85.282 43.4208C85.2482 43.475 85.2354 43.5396 85.2462 43.6025C85.7538 46.4165 85.9233 49.3175 85.7548 52.3055C85.7387 52.5615 85.7066 52.8185 85.6585 53.0765C85.6424 53.1705 85.6043 53.2545 85.5441 53.3285C85.3515 53.5665 85.1098 53.7055 84.8188 53.7455C84.6459 53.7697 84.4703 53.725 84.3301 53.6211C84.1899 53.5173 84.0963 53.3626 84.0695 53.1905C83.8769 51.9605 84.217 50.9015 84.1327 49.7045C84.0364 48.3565 83.9812 47.0165 83.9672 45.6845C83.9581 44.9975 83.7294 44.3255 83.576 43.6565C83.5658 43.6115 83.5393 43.5718 83.5015 43.5452C83.4637 43.5186 83.4173 43.507 83.3713 43.5125L80.2926 43.8755C79.9736 43.9135 79.758 43.7835 79.6456 43.4855C79.6175 43.4155 79.6015 43.3435 79.5975 43.2695C79.5634 42.8255 79.764 42.5545 80.1994 42.4565C82.4223 41.9545 84.3875 41.6595 86.0949 41.5715C86.7088 41.5395 87.7811 41.5925 89.3119 41.7305C89.4283 41.7405 89.5176 41.7935 89.5798 41.8895C89.8045 42.2275 89.8165 42.6195 89.6159 43.0655C89.5838 43.1375 89.5286 43.1785 89.4504 43.1885C88.9719 43.2485 88.5957 43.2815 88.1112 43.1795C87.2404 42.9935 86.3466 43.0365 85.4298 43.3085Z" fill="#0F0F0F"/>
<path d="M71.5842 43.1343C71.6865 42.9703 71.7778 42.9763 71.858 43.1523C72.3636 44.2363 72.9003 45.2693 73.4681 46.2513C73.771 46.7773 73.9616 47.3383 74.0399 47.9343C74.0519 48.0343 74.0078 48.0893 73.9074 48.0993C73.0989 48.1813 72.3335 48.2403 71.6112 48.2763C71.0094 48.3043 70.4576 48.3863 69.9561 48.5223C69.6752 48.5963 69.5819 48.4963 69.6762 48.2223C70.1276 46.9003 70.563 45.6253 70.9823 44.3973C71.1307 43.9653 71.3314 43.5443 71.5842 43.1343Z" fill="white"/>
</svg>
