<svg width="150" height="80" viewBox="0 0 150 80" fill="none" xmlns="http://www.w3.org/2000/svg">
<path d="M86.5356 42.0548C83.3001 42.0548 80.2251 42.0548 77.15 42.0548C76.1708 42.0548 76.0638 41.9476 76.0586 40.9808C76.0542 40.1661 76.0586 39.3507 76.0586 38.536C76.0586 37.112 76.1069 37.0595 77.4881 37.0595H92.6567C92.8127 37.0595 92.9695 37.064 93.1255 37.0595C93.7941 37.0415 94.1656 37.3263 94.1099 38.0473C94.1099 38.0736 94.1099 38.0998 94.1099 38.126C94.1612 40.9928 94.1522 40.9853 92.2667 43.2413C89.4296 46.6354 86.5973 50.0386 83.7696 53.4508C83.9925 53.7228 84.2726 53.6007 84.5059 53.6007C87.3469 53.6111 90.1872 53.6044 93.0282 53.6096C93.9673 53.6096 94.1322 53.776 94.1389 54.6979C94.1456 55.6722 94.1389 56.6466 94.1389 57.6164C94.1389 58.2819 93.8803 58.6252 93.1582 58.623C87.7892 58.6075 82.4202 58.6075 77.0512 58.623C76.3826 58.623 76.0854 58.3419 76.0906 57.6891C76.0906 56.795 76.1077 55.9008 76.0846 55.0074C76.1179 54.5584 76.3266 54.1411 76.6649 53.8472C79.7976 50.1168 82.9308 46.3864 86.0646 42.6559C86.1946 42.5008 86.3149 42.3374 86.5334 42.0563" fill="white"/>
<path d="M109.623 42.4014C109.802 41.8903 109.985 41.4271 110.126 40.9549C110.171 40.6936 110.317 40.4608 110.532 40.3076C110.747 40.1543 111.013 40.0931 111.272 40.1372C111.895 40.1792 112.522 40.1372 113.148 40.1477C114.114 40.1597 114.444 40.4947 114.462 41.4916C114.477 42.2538 114.462 43.016 114.462 43.779C114.462 48.196 114.462 52.6129 114.462 57.0299C114.462 58.3258 114.173 58.6166 112.909 58.6196C112.258 58.6196 111.607 58.6196 110.955 58.6196C109.789 58.6196 109.697 58.5514 109.325 57.4631C109.267 57.2967 109.205 57.1318 109.143 56.9595C108.627 57.375 108.085 57.7561 107.519 58.1002C104.483 59.6943 101.594 59.0415 99.0045 57.1521C97.4618 56.1043 96.2808 54.5979 95.6255 52.842C94.9702 51.0862 94.8731 49.1681 95.3477 47.354C96.1843 43.426 98.7155 40.9602 102.629 40.1028C105.212 39.5362 107.552 40.0406 109.353 42.1856C109.436 42.2657 109.526 42.3384 109.622 42.4029L109.623 42.4014ZM108.932 49.4429C108.945 48.8442 108.84 48.2488 108.622 47.6916C108.405 47.1344 108.079 46.6266 107.665 46.1977C107.251 45.7689 106.756 45.4277 106.209 45.1941C105.662 44.9605 105.075 44.8392 104.481 44.8373C102.065 44.82 100.276 46.7859 100.291 49.4519C100.305 52.0653 102.014 53.927 104.415 53.9443C105.009 53.9646 105.601 53.8625 106.155 53.6442C106.708 53.4259 107.212 53.096 107.635 52.6746C108.057 52.2533 108.391 51.7494 108.614 51.1937C108.837 50.638 108.945 50.0423 108.932 49.4429Z" fill="white"/>
<path d="M69.1029 42.4552C69.3362 41.8211 69.5323 41.3092 69.7121 40.7921C69.7635 40.5868 69.8871 40.4074 70.0598 40.2871C70.2326 40.1669 70.4427 40.1141 70.6512 40.1385C71.38 40.161 72.1103 40.1385 72.8392 40.146C72.99 40.1302 73.1424 40.1483 73.2855 40.199C73.4286 40.2497 73.5587 40.3318 73.6666 40.4393C73.7745 40.5468 73.8575 40.677 73.9095 40.8207C73.9616 40.9644 73.9815 41.1179 73.9677 41.2703C73.99 41.7949 73.9736 42.3195 73.9736 42.8442C73.9736 47.5749 73.9736 52.3059 73.9736 57.0372C73.9736 58.3166 73.6765 58.6111 72.4135 58.6111C71.7622 58.6111 71.1108 58.6111 70.4595 58.6111C69.3206 58.6111 69.1965 58.5182 68.8347 57.4427C68.7849 57.2928 68.73 57.1429 68.6787 57.0005C68.6207 56.9967 68.5561 56.972 68.5353 56.993C65.3325 60.1408 60.7953 59.0421 58.2508 56.9585C56.7949 55.8644 55.6971 54.3555 55.099 52.6263C54.5009 50.897 54.4298 49.0268 54.8949 47.2564C55.2298 45.4694 56.0975 43.8281 57.382 42.552C58.6665 41.2759 60.3065 40.4258 62.0829 40.1153C64.7976 39.5037 67.2032 40.0718 69.1066 42.4522L69.1029 42.4552ZM63.9677 53.9343C64.5559 53.9459 65.1405 53.8392 65.6875 53.6207C66.2345 53.4021 66.7329 53.076 67.1537 52.6613C67.5746 52.2466 67.9095 51.7515 68.1389 51.205C68.3683 50.6585 68.4876 50.0714 68.49 49.4779C68.4998 48.2535 68.0302 47.0748 67.1832 46.1978C66.3363 45.3208 65.1805 44.8164 63.967 44.7943C61.649 44.7704 59.8265 46.7835 59.8005 49.3962C59.7745 52.0089 61.5301 53.9298 63.9677 53.9343Z" fill="white"/>
<path d="M45.8339 50.5905C46.7328 47.8241 47.6169 45.0855 48.5144 42.3514C49.0055 40.8569 49.5352 39.3752 50.0144 37.8769C50.066 37.6311 50.2045 37.4126 50.4041 37.2622C50.6037 37.1119 50.8508 37.04 51.0991 37.06C52.4802 37.06 53.8621 37.045 55.2432 37.0667C56.0144 37.0787 56.1682 37.3193 55.8866 38.0628C53.424 44.5584 50.9567 51.0539 48.4847 57.5494C48.4094 57.8989 48.2042 58.206 47.9114 58.4075C47.6186 58.6091 47.2604 58.6899 46.9104 58.6332C46.0789 58.5589 45.2426 58.5589 44.4111 58.6332C44.1151 58.6828 43.8115 58.6177 43.5611 58.4509C43.3107 58.2841 43.1322 58.0279 43.0612 57.7338C42.1697 55.3797 41.2655 53.0315 40.3732 50.6782C38.8027 46.53 37.2358 42.3831 35.6727 38.2374C35.2856 37.2106 35.3918 37.0652 36.4973 37.06C37.6964 37.0548 38.8963 37.0892 40.0939 37.048C40.415 36.9972 40.7432 37.0749 41.0084 37.2644C41.2737 37.4539 41.4552 37.7404 41.5144 38.0628C42.7774 41.9804 44.0909 45.8822 45.3963 49.7855C45.4832 50.0456 45.481 50.3656 45.8339 50.592" fill="white"/>
<path d="M74.8014 25.425C75.0191 25.2504 74.9805 24.9618 75.0577 24.7325C75.3959 23.6599 76.0636 22.7237 76.9642 22.0594C77.8649 21.3952 78.9517 21.0373 80.0674 21.0375C81.6833 21.024 83.2992 21.0488 84.9151 21.0293C85.3884 21.0233 85.5481 21.135 85.4827 21.6581C85.3311 22.9636 84.713 24.1685 83.744 25.0472C82.7751 25.9259 81.5218 26.4181 80.219 26.4316C76.5959 26.4426 72.973 26.4426 69.3505 26.4316C68.0475 26.4194 66.7941 25.9267 65.8265 25.0464C64.8589 24.166 64.244 22.959 64.0979 21.6529C64.0496 21.2316 64.0696 21.0188 64.5733 21.0233C66.2405 21.0383 67.9106 20.9641 69.5756 21.0233C70.76 21.0378 71.9046 21.4564 72.8229 22.2111C73.7413 22.9658 74.3792 24.012 74.6328 25.1792C74.6573 25.2729 74.6454 25.392 74.7992 25.428" fill="white"/>
<path d="M74.7907 27.8392H79.2372C80.2031 27.8392 80.2476 27.8984 80.0708 28.8637C79.8498 30.0408 79.2506 31.1116 78.3658 31.9106C77.4809 32.7096 76.3598 33.1922 75.1757 33.2839C73.9917 33.3755 72.8107 33.071 71.8154 32.4175C70.8201 31.7641 70.066 30.798 69.6696 29.6687C69.0604 27.9306 69.1213 27.8392 70.888 27.8392H74.7885" fill="white"/>
</svg>
