<svg width="200" height="80" viewBox="0 0 200 80" fill="none" xmlns="http://www.w3.org/2000/svg">
<path d="M9.81204 31.9537L7.41124 29.8023L9.90808 27.2923L12.0528 29.7045C12.5009 29.3785 12.9491 29.0526 13.4293 28.7918L12.0208 25.8906L15.2859 24.5216L16.3422 27.5531C16.8864 27.4227 17.3986 27.2923 17.9428 27.2271L17.7507 24H21.3039L21.1118 27.2271C21.656 27.2923 22.2002 27.3901 22.7123 27.5531L23.7687 24.5216L27.0338 25.8906L25.6893 28.7918C26.1695 29.0526 26.6176 29.3785 27.0658 29.7045L29.2105 27.2923L31.7073 29.8023L29.3065 31.9537C29.6266 32.3775 29.9468 32.8339 30.2348 33.3228L33.1158 31.9211L34.4603 35.2135L31.4192 36.2892C31.5473 36.8107 31.6753 37.3649 31.7394 37.8864L34.9404 37.7234V41.2766L31.7394 41.1136C31.6753 41.6677 31.5473 42.1893 31.4192 42.7108L34.4603 43.7865L33.1158 47.0789L30.2348 45.6772C29.9468 46.1661 29.6587 46.6225 29.3065 47.0463L31.7073 49.1977L29.2105 51.7077L27.0658 49.2955C26.6176 49.6215 26.1695 49.9474 25.6893 50.2082L27.0978 53.1094L23.8327 54.4784L22.7764 51.4469C22.2322 51.5773 21.72 51.7077 21.1758 51.7729L21.3679 55H17.8147L18.0068 51.7729C17.4626 51.7077 16.9184 51.6099 16.4062 51.4469L15.3499 54.4784L12.0848 53.1094L13.4933 50.2082C13.0131 49.9474 12.565 49.6215 12.1168 49.2955L9.9721 51.7077L7.47526 49.1977L9.87606 47.0463C9.55596 46.6225 9.23585 46.1661 8.94776 45.6772L6.0668 47.0789L4.72235 43.7865L7.76336 42.7108C7.63532 42.1893 7.50728 41.6351 7.44325 41.1136L4.24219 41.2766V37.7234L7.44325 37.8864C7.50728 37.3323 7.60331 36.8107 7.76336 36.2892L4.72235 35.2135L6.0668 31.9211L8.97977 33.3228C9.17183 32.8339 9.49194 32.3775 9.81204 31.9537ZM12.1168 39.4837C12.0848 40.9832 12.5009 42.4827 13.3332 43.7539C14.1335 45.0252 15.2859 46.0032 16.6623 46.6225C18.0388 47.2092 19.5433 47.3722 20.9838 47.1115C22.4563 46.8181 23.7687 46.1009 24.8571 45.0578C25.9134 43.9821 26.6497 42.6456 26.9378 41.1462C27.2258 39.6793 27.0978 38.1146 26.5216 36.7455C25.9454 35.3439 25.0171 34.1378 23.7687 33.3228C22.5523 32.4753 21.0798 32.0189 19.6073 32.0189C18.647 32.0189 17.6547 32.2145 16.7584 32.5731C15.8621 32.9316 15.0298 33.4858 14.3255 34.2029C13.6213 34.8875 13.0771 35.735 12.693 36.6477C12.3089 37.4953 12.1168 38.4732 12.1168 39.4837ZM182.67 31.4648L194.546 43.428V32.0841H196.242V47.3722L184.366 35.4416V46.7203H182.67V31.4648ZM161.959 39.3859C161.959 42.6782 164.744 45.449 168.201 45.449C171.658 45.449 174.443 42.6782 174.443 39.3859C174.443 36.0936 171.69 33.3228 168.201 33.3228C164.712 33.3228 161.959 36.061 161.959 39.3859ZM176.107 39.4185C176.107 43.6235 172.522 46.9811 168.169 46.9811C163.815 46.9811 160.23 43.6561 160.23 39.4185C160.23 35.2135 163.815 31.8233 168.169 31.8233C172.522 31.8233 176.107 35.2135 176.107 39.4185ZM153.188 34.9201C152.58 33.9096 151.843 33.3228 150.563 33.3228C149.219 33.3228 148.034 34.2681 148.034 35.6046C148.034 36.8759 149.379 37.4627 150.403 37.8864L151.427 38.3102C153.412 39.1577 155.076 40.103 155.076 42.4175C155.076 44.9926 152.932 46.9485 150.307 46.9485C147.874 46.9485 146.049 45.449 145.569 43.1672L147.234 42.7108C147.33 43.4606 147.682 44.1777 148.258 44.6667C148.834 45.1556 149.539 45.449 150.307 45.449C151.939 45.449 153.444 44.2429 153.444 42.613C153.444 40.9506 152.035 40.3312 150.627 39.7119L149.699 39.3207C147.938 38.5384 146.402 37.6583 146.402 35.572C146.402 33.2902 148.386 31.8559 150.659 31.8559C151.459 31.8233 152.228 32.0515 152.932 32.4427C153.636 32.8339 154.212 33.4206 154.596 34.1378L153.188 34.9201ZM133.501 38.8644H134.013C135.934 38.8644 137.855 38.5058 137.855 36.2566C137.855 33.8444 136.03 33.6162 133.981 33.6162H133.469L133.501 38.8644ZM133.501 46.7203H131.805V32.0841H134.013C136.894 32.0841 139.583 32.8339 139.583 36.1262C139.583 38.3754 138.111 39.9727 135.742 40.1682L140.576 46.7203H138.495L133.917 40.2986H133.501V46.7203ZM117.368 32.0841H125.211V33.5836H119.032V37.9516H125.05V39.4511H119.032V45.1882H125.211V46.6877H117.336V32.0841H117.368ZM105.108 38.7992H106.26C108.149 38.7992 109.717 38.245 109.717 36.1588C109.717 33.7792 107.733 33.5836 105.748 33.5836H105.14L105.108 38.7992ZM105.108 46.7203H103.411V32.0841H105.908C107.221 32.0841 108.597 32.1167 109.685 32.8665C110.23 33.225 110.646 33.7466 110.966 34.3007C111.254 34.8875 111.414 35.5394 111.414 36.1914C111.414 36.7781 111.286 37.3975 111.03 37.919C110.774 38.4732 110.422 38.9295 109.941 39.3207C108.917 40.1356 107.605 40.2986 106.324 40.2986H105.108V46.7203ZM91.1832 34.5615V37.7886H95.7287V40.266H91.1832V44.2429H95.8887V46.7203H88.3342V32.0841H95.8887V34.5615H91.1832ZM76.4903 40.7876L79.9794 32.0841H83.0525L76.5543 47.5352L70.1201 32.0841H73.1932L76.4903 40.7876ZM64.8384 46.7203H61.9894V32.0841H64.8384V46.7203ZM52.5143 44.2429H56.5476V46.7203H49.6653V32.0841H52.5143V44.2429Z" fill="white"/>
</svg>
