<svg width="150" height="80" viewBox="0 0 150 80" fill="none" xmlns="http://www.w3.org/2000/svg">
<path fill-rule="evenodd" clip-rule="evenodd" d="M104.536 56.4913H93.8939C93.3763 56.4913 92.9647 56.9272 92.9647 57.4743C92.9647 58.0568 93.3763 58.4933 93.8939 58.4933H104.536C105.053 58.4933 105.464 58.0568 105.464 57.4743C105.464 56.9272 105.053 56.4913 104.536 56.4913ZM57.8834 39.9809H52.3915C51.8762 39.9809 51.4646 40.3931 51.4646 40.9425C51.4646 41.4578 51.8756 41.87 52.3909 41.87H57.8834C58.3056 41.8701 58.7237 41.9539 59.1134 42.1167C59.503 42.2794 59.8566 42.5177 60.1535 42.8179C60.4505 43.1181 60.685 43.4742 60.8435 43.8656C61.002 44.257 61.0813 44.6759 61.0769 45.0982C61.0769 46.8153 59.7377 48.2917 57.8834 48.2917H52.3915C51.8762 48.2917 51.4646 48.7044 51.4646 49.2527V57.5317C51.4646 58.0799 51.8756 58.4927 52.3909 58.4927C52.9409 58.4927 53.352 58.0799 53.352 57.5317V50.1813H57.8492C61.1104 50.1813 62.9648 47.5361 62.9648 45.0982C62.9648 42.2816 60.6641 39.9809 57.8834 39.9809ZM70.0471 41.87H75.5378C76.0519 41.87 76.4641 41.4583 76.4641 40.9419C76.4641 40.3931 76.0519 39.9809 75.5378 39.9809H70.0471C67.2658 39.9809 64.9662 42.2822 64.9662 45.0988C64.9662 47.5379 66.82 50.1819 70.0795 50.1819H71.4006C73.2446 50.1918 74.575 51.6629 74.575 53.3748C74.5795 53.797 74.5003 54.2159 74.3419 54.6073C74.1835 54.9987 73.9492 55.3548 73.6523 55.6551C73.3554 55.9553 73.002 56.1937 72.6125 56.3565C72.2229 56.5193 71.8049 56.6033 71.3827 56.6036H65.8914C65.3761 56.6036 64.9651 57.0152 64.9651 57.5317C64.9651 58.0799 65.3761 58.4927 65.8914 58.4927H71.3821C74.1628 58.4927 76.4624 56.1908 76.4624 53.3748C76.4624 50.9363 74.6092 48.2911 71.3485 48.2911H70.483L70.4842 48.2934H70.0471C68.1921 48.2934 66.853 46.8159 66.853 45.0988C66.8485 44.6764 66.9278 44.2574 67.0863 43.8659C67.2447 43.4744 67.4793 43.1182 67.7763 42.8179C68.0734 42.5176 68.427 42.2793 68.8168 42.1165C69.2065 41.9538 69.6247 41.87 70.0471 41.87ZM114.384 39.9809H108.892C108.376 39.9809 107.965 40.3931 107.965 40.9425C107.965 41.4578 108.376 41.87 108.892 41.87H114.384C114.806 41.8702 115.224 41.9541 115.614 42.1168C116.003 42.2796 116.357 42.5179 116.654 42.8181C116.951 43.1183 117.185 43.4744 117.344 43.8657C117.502 44.2571 117.581 44.676 117.577 45.0982C117.577 46.8153 116.238 48.2917 114.384 48.2917H108.892C108.376 48.2917 107.965 48.7044 107.965 49.2527V57.5317C107.965 58.0799 108.376 58.4927 108.892 58.4927C109.442 58.4927 109.853 58.0799 109.853 57.5317V50.1813H114.35C117.611 50.1813 119.465 47.5361 119.465 45.0982C119.465 42.2816 117.165 39.9809 114.384 39.9809ZM90.0358 39.9809H79.3936C78.876 39.9809 78.465 40.3919 78.465 40.9083C78.465 41.4583 78.876 41.8682 79.3936 41.8682H83.7693V57.5652C83.7693 58.0817 84.1809 58.4927 84.7303 58.4927C85.2479 58.4927 85.6601 58.0817 85.6601 57.5652V41.8682H90.0358C90.5528 41.8682 90.965 41.4578 90.965 40.9083C90.965 40.3919 90.5528 39.9809 90.0358 39.9809ZM104.536 39.9809H93.8939C93.3763 39.9809 92.9647 40.4168 92.9647 40.9645C92.9647 41.5469 93.3763 41.9823 93.8939 41.9823H104.536C105.053 41.9823 105.464 41.5469 105.464 40.9645C105.464 40.4168 105.053 39.9809 104.536 39.9809ZM104.536 47.986H93.8939C93.3763 47.986 92.9647 48.4213 92.9647 48.969C92.9647 49.5509 93.3763 49.9874 93.8939 49.9874H104.536C105.053 49.9874 105.464 49.5509 105.464 48.9684C105.464 48.4219 105.053 47.986 104.536 47.986Z" fill="white"/>
<path fill-rule="evenodd" clip-rule="evenodd" d="M33.9041 36.3141C33.584 34.7064 33.2939 32.4219 33.3043 30.8083C33.3234 28.1133 33.6575 24.774 36.103 22.8565C38.021 21.3541 41.3222 21.5463 43.1673 23.2687C45.7882 25.7136 45.7343 31.572 45.2306 34.894C45.1933 35.1354 45.2531 35.3818 45.397 35.5793C45.5409 35.7767 45.7571 35.9092 45.9983 35.9477C46.1179 35.9662 46.24 35.9608 46.3574 35.9319C46.4749 35.9029 46.5855 35.8509 46.6827 35.7789C46.78 35.7069 46.862 35.6163 46.924 35.5124C46.986 35.4085 47.0267 35.2934 47.0439 35.1736C47.6437 31.2234 47.5586 24.8475 44.4155 21.9134C41.9168 19.5814 37.5943 19.3463 34.9758 21.3993C31.8743 23.8297 31.4893 27.9258 31.4691 30.7956C31.4575 32.5353 31.7597 34.9467 32.1042 36.6777C32.1516 36.9168 32.2919 37.1272 32.4944 37.2629C32.6968 37.3986 32.9448 37.4484 33.1839 37.4014C33.4233 37.3523 33.6335 37.2103 33.7684 37.0065C33.9033 36.8027 33.9525 36.5537 33.9041 36.3141Z" fill="white"/>
<path fill-rule="evenodd" clip-rule="evenodd" d="M47.1004 47.3738C46.518 46.0364 45.9674 44.7743 45.7092 43.4265C45.3942 41.7858 45.741 40.2348 46.122 38.9339C46.2656 38.4429 45.9929 37.9265 45.5118 37.7789C45.3966 37.7446 45.2757 37.7336 45.1562 37.7465C45.0367 37.7593 44.9209 37.7959 44.8156 37.8539C44.7104 37.9119 44.6177 37.9903 44.543 38.0844C44.4683 38.1786 44.413 38.2867 44.3805 38.4024C43.9359 39.9204 43.5347 41.747 43.9255 43.7837C44.2242 45.337 44.8419 46.756 45.44 48.1282C46.023 49.4655 46.5736 50.7299 46.8335 52.0812C47.4455 55.2561 45.6745 57.1534 43.9735 57.8134C42.0711 58.5498 39.4635 58.0953 37.9212 55.4165C36.7008 53.2976 36.7008 50.6888 36.7008 48.1669C36.7008 47.7484 36.7008 47.3333 36.695 46.9222C36.666 44.6938 36.2805 42.5963 35.445 40.1219C35.4079 40.0075 35.3484 39.9017 35.2699 39.8106C35.1913 39.7196 35.0954 39.6451 34.9877 39.5916C34.88 39.5381 34.7627 39.5067 34.6427 39.4991C34.5227 39.4915 34.4024 39.508 34.2889 39.5476C33.8147 39.7143 33.5629 40.2423 33.7267 40.7269C34.4967 43.0062 34.8516 44.9243 34.8782 46.9459C34.8829 47.3495 34.8829 47.7576 34.8829 48.1669C34.8829 50.9372 34.8829 53.8024 36.3551 56.3579C37.8506 58.955 40.1166 59.9914 42.243 59.9914C43.0744 59.9914 43.8838 59.8339 44.6185 59.549C47.1681 58.559 49.3936 55.7564 48.6167 51.7223C48.3168 50.1666 47.6985 48.7465 47.1004 47.3738Z" fill="white"/>
</svg>
