<svg width="150" height="80" viewBox="0 0 150 80" fill="none" xmlns="http://www.w3.org/2000/svg">
<path d="M74.4907 63.7274V59.1638C74.4907 58.3869 74.4786 56.9847 71.9669 56.9847C71.3048 56.9775 70.6464 57.0849 70.0169 57.3028C69.5915 57.4478 69.4531 57.6187 69.4531 57.8438V63.7405C69.4531 63.9567 69.5141 63.9916 69.6933 63.9916H70.3039C70.4768 63.9916 70.5685 63.9656 70.5685 63.7274V58.3178C70.5685 58.0126 71.0387 57.712 71.918 57.712C73.3773 57.712 73.3773 58.7007 73.3773 59.324V63.7383C73.3773 63.9763 73.4527 64.0023 73.652 64.0023H74.3422C74.4786 63.9656 74.4907 63.8445 74.4907 63.7274Z" fill="white"/>
<path fill-rule="evenodd" clip-rule="evenodd" d="M79.6844 57.4485C80.4372 57.9562 80.9318 58.9394 80.9318 60.4828C80.9318 62.0136 80.4372 63.0031 79.6844 63.5043C79.1772 63.8195 78.5912 63.9867 77.9934 63.9867C77.3953 63.9867 76.8093 63.8195 76.3021 63.5043C75.5496 63.0097 75.0547 62.0261 75.0547 60.4828C75.0547 58.9394 75.5496 57.9497 76.3021 57.4485C76.8098 57.1348 77.3956 56.9688 77.9934 56.9688C78.5909 56.9688 79.1767 57.1348 79.6844 57.4485ZM79.1287 62.8048C79.4902 62.4679 79.7375 61.6868 79.7375 60.4759C79.7375 59.2525 79.4902 58.4713 79.1287 58.1323C78.8154 57.8606 78.4142 57.7109 77.9988 57.7109C77.5835 57.7109 77.182 57.8606 76.869 58.1323C76.5031 58.4713 76.2578 59.2652 76.2578 60.4759C76.2578 61.6868 76.5031 62.4679 76.869 62.8048C77.1815 63.0776 77.5829 63.228 77.9988 63.228C78.4145 63.228 78.816 63.0776 79.1287 62.8048Z" fill="white"/>
<path d="M86.5223 57.6738C86.5223 57.1949 85.5816 56.9844 84.5153 56.9844C83.9209 56.9838 83.3296 57.0569 82.7593 57.2013C82.2326 57.3226 82.0469 57.52 82.0469 57.7455V63.7854C82.0469 64.0023 82.1422 64.0023 82.3581 64.0023H83.1432C83.3286 64.0023 83.4215 63.9913 83.4215 63.7854V58.244C83.423 58.1589 83.4451 58.0749 83.4864 57.9976C83.5277 57.9202 83.587 57.8512 83.6609 57.7949C83.7349 57.7385 83.8218 57.6961 83.9156 57.6706C84.0097 57.6448 84.1088 57.6365 84.2066 57.6456C85.1952 57.6456 85.3455 58.2701 85.8726 58.2701C85.962 58.2722 86.0508 58.258 86.1335 58.2284C86.2161 58.1986 86.2906 58.1541 86.3518 58.098C86.4133 58.0416 86.4602 57.9747 86.4894 57.9017C86.5189 57.8284 86.5301 57.7508 86.5223 57.6738Z" fill="white"/>
<path fill-rule="evenodd" clip-rule="evenodd" d="M91.8303 54.7073V63.0488C91.8303 63.4861 90.4113 63.9819 89.4004 63.9819C87.3276 63.9819 85.9531 62.7879 85.9531 60.3654C85.9531 58.7368 87.0395 56.7797 89.1498 56.7797C89.6694 56.7711 90.1821 56.8955 90.6374 57.1405V54.7334C90.6374 54.5202 90.6728 54.4375 90.8946 54.4375H91.5596C91.7636 54.4375 91.8303 54.4682 91.8303 54.7073ZM89.4385 63.1955C90.066 63.1955 90.638 63.0108 90.638 62.665V58.0245C90.2776 57.7156 89.8074 57.5595 89.3301 57.5896C88.0775 57.5896 87.1797 58.6659 87.1797 60.2751C87.1797 62.1192 88.1195 63.1955 89.4385 63.1955Z" fill="white"/>
<path fill-rule="evenodd" clip-rule="evenodd" d="M93.5884 54.6283C93.7167 54.7546 93.7918 54.9284 93.7973 55.1123C93.8007 55.2092 93.7848 55.3059 93.7506 55.3961C93.7165 55.4865 93.6651 55.5686 93.5993 55.6376C93.5336 55.7063 93.4551 55.7606 93.3685 55.7964C93.2819 55.8326 93.1891 55.8497 93.096 55.847C93.0055 55.8527 92.9147 55.8388 92.8297 55.8065C92.7444 55.7739 92.6667 55.7234 92.6012 55.6582C92.5357 55.5927 92.4838 55.514 92.4489 55.4268C92.4142 55.3399 92.397 55.2459 92.3985 55.1517C92.397 55.055 92.4144 54.9588 92.4502 54.8697C92.4859 54.7804 92.5391 54.6997 92.6061 54.6329C92.6732 54.5658 92.7527 54.5139 92.8398 54.4808C92.9272 54.4474 93.0201 54.433 93.1127 54.4387C93.2892 54.4341 93.4603 54.5023 93.5884 54.6283ZM93.6757 57.2936V63.7394C93.6757 63.9697 93.6103 63.9808 93.4165 63.9808H92.7172C92.5234 63.9808 92.5234 63.9281 92.5234 63.7394V57.2936C92.5234 57.1181 92.5234 57.0391 92.7446 57.0391H93.4165C93.6231 57.0391 93.6757 57.0741 93.6757 57.2936Z" fill="white"/>
<path fill-rule="evenodd" clip-rule="evenodd" d="M102.488 54.6298V63.7611C102.488 63.9614 102.428 63.9664 102.257 63.9807C102.253 63.9811 102.248 63.9815 102.244 63.9819H101.568C101.399 63.9819 101.359 63.9488 101.359 63.7611V54.6585C101.359 54.464 101.426 54.4375 101.568 54.4375H102.244C102.4 54.4375 102.488 54.4375 102.488 54.6298ZM106.335 63.6637C106.378 63.7212 106.407 63.7607 106.407 63.8175C106.407 63.9565 106.293 63.9677 106.241 63.9633H105.368C105.166 63.9633 105.116 63.9633 104.987 63.7622L102.705 60.3251C102.689 60.3063 102.68 60.2819 102.68 60.2568C102.682 60.2401 102.688 60.2242 102.696 60.2103C102.705 60.196 102.716 60.1843 102.73 60.175C103.779 59.4712 104.577 58.4173 104.997 57.1799C105.061 56.9759 105.157 56.9761 105.362 56.9766C105.372 56.9766 105.383 56.9767 105.393 56.9767H105.996C106.163 56.9767 106.226 57.0054 106.226 57.1268C106.225 57.2217 106.2 57.3145 106.155 57.3962C105.603 58.5122 104.823 59.4841 103.873 60.2414L103.885 60.2568L106.317 63.6408C106.323 63.6488 106.329 63.6564 106.335 63.6637Z" fill="white"/>
<path d="M99.9544 61.9949C99.9544 59.8183 96.7608 60.1574 96.7608 58.718C96.7608 58.2264 97.1515 57.7198 97.8762 57.7198C98.6005 57.7198 98.8265 58.2138 99.213 58.2138C99.2742 58.2172 99.3354 58.208 99.3927 58.1867C99.4499 58.1652 99.5022 58.1324 99.5464 58.0896C99.5904 58.0471 99.6251 57.9959 99.6484 57.9392C99.672 57.8823 99.6832 57.8214 99.6819 57.76C99.6819 57.2684 98.8372 56.9844 97.9436 56.9844C96.7608 56.9844 95.7258 57.6201 95.7258 58.8219C95.7258 59.9348 96.5158 60.4138 97.4619 60.8143C98.2161 61.128 98.9151 61.412 98.9151 62.1243C98.9151 62.6563 98.4928 63.2624 97.5804 63.2624C96.6677 63.2624 96.4101 62.5905 95.9708 62.5905C95.7595 62.5905 95.4766 62.6818 95.4766 63.0143C95.4766 63.5464 96.5158 64.0023 97.5676 64.0023C98.742 64.0044 99.9544 63.3813 99.9544 61.9949Z" fill="white"/>
<path d="M46.5063 63.7276V59.1637C46.5063 58.3869 46.4941 56.9847 43.9794 56.9847C43.3172 56.9777 42.6584 57.0852 42.0287 57.303C41.6031 57.448 41.4688 57.619 41.4688 57.8438V63.7405C41.4688 63.957 41.5298 63.9916 41.7049 63.9916H42.3158C42.4889 63.9916 42.5785 63.9656 42.5785 63.7276V58.3178C42.5785 58.0126 43.0529 57.7119 43.9285 57.7119C45.3905 57.7119 45.3905 58.7007 45.3905 59.324V63.7383C45.3905 63.9763 45.4678 64.0023 45.6674 64.0023H46.3556C46.4941 63.9656 46.5063 63.8445 46.5063 63.7276Z" fill="white"/>
<path fill-rule="evenodd" clip-rule="evenodd" d="M52.2483 57.4485C52.9993 57.9562 53.4943 58.9394 53.4943 60.4828C53.4943 62.0136 52.9993 63.0031 52.2483 63.5043C51.7405 63.8195 51.1541 63.9867 50.5558 63.9867C49.9574 63.9867 49.371 63.8195 48.8633 63.5043C48.1101 63.0097 47.6172 62.0261 47.6172 60.4828C47.6172 58.9394 48.1101 57.9497 48.8633 57.4485C49.3716 57.1348 49.9577 56.9688 50.5558 56.9688C51.1538 56.9688 51.74 57.1348 52.2483 57.4485ZM51.6933 62.8043C52.0551 62.4674 52.3047 61.6862 52.3047 60.4753C52.3047 59.2519 52.0551 58.4707 51.6933 58.1318C51.3793 57.8603 50.9773 57.7109 50.5615 57.7109C50.1456 57.7109 49.7436 57.8603 49.4296 58.1318C49.0678 58.4707 48.8203 59.2647 48.8203 60.4753C48.8203 61.6862 49.0678 62.4674 49.4296 62.8043C49.743 63.0768 50.1452 63.227 50.5615 63.227C50.9777 63.227 51.3799 63.0768 51.6933 62.8043Z" fill="white"/>
<path fill-rule="evenodd" clip-rule="evenodd" d="M64.2935 57.4485C65.0485 57.9562 65.5412 58.9394 65.5412 60.4828C65.5412 62.0136 65.0485 63.0031 64.2935 63.5043C63.7859 63.8195 63.1997 63.9867 62.6016 63.9867C62.0034 63.9867 61.4173 63.8195 60.9097 63.5043C60.1568 63.0097 59.6641 62.0261 59.6641 60.4828C59.6641 58.9394 60.1568 57.9497 60.9097 57.4485C61.4178 57.1348 62.0038 56.9688 62.6016 56.9688C63.1994 56.9688 63.7854 57.1348 64.2935 57.4485ZM63.737 62.8048C64.1029 62.4679 64.3503 61.6868 64.3503 60.4759C64.3503 59.2525 64.1029 58.4713 63.737 58.1323C63.4237 57.8606 63.0222 57.7109 62.6067 57.7109C62.1911 57.7109 61.7896 57.8606 61.4763 58.1323C61.1125 58.4713 60.8672 59.2652 60.8672 60.4759C60.8672 61.6868 61.1125 62.4679 61.4763 62.8048C61.7891 63.0776 62.1908 63.228 62.6067 63.228C63.0225 63.228 63.4243 63.0776 63.737 62.8048Z" fill="white"/>
<path d="M59.9396 57.126C59.9396 56.9866 59.8322 56.9866 59.7642 56.9866H59.091C58.9967 56.9997 58.9704 57.0397 58.9287 57.1766L57.1743 62.3236L55.3542 57.2054C55.2884 57.0153 55.2621 56.9844 55.0581 56.9844H54.2511C54.1963 56.9844 54.0625 56.9844 54.0625 57.1479C54.0681 57.2144 54.0868 57.2791 54.1173 57.3382L56.545 63.7813C56.6129 63.9426 56.6392 63.9848 56.7445 64.0023H57.273C57.4331 64.0023 57.4616 63.9913 57.5296 63.801L59.8848 57.3558C59.9166 57.2832 59.9352 57.2051 59.9396 57.126Z" fill="white"/>
<path fill-rule="evenodd" clip-rule="evenodd" d="M107.214 51.0859C106.772 51.0879 106.34 51.221 105.973 51.469C105.606 51.7168 105.32 52.0681 105.152 52.4787C104.984 52.8893 104.941 53.3405 105.029 53.7755C105.116 54.2105 105.33 54.6097 105.643 54.923C105.957 55.236 106.356 55.4491 106.79 55.5348C107.224 55.6208 107.673 55.576 108.082 55.4057C108.491 55.2354 108.84 54.9474 109.085 54.5785C109.331 54.2094 109.462 53.7755 109.462 53.3317C109.461 53.0363 109.403 52.7437 109.29 52.471C109.176 52.198 109.01 51.9503 108.802 51.742C108.593 51.5334 108.345 51.368 108.073 51.2556C107.8 51.143 107.509 51.0854 107.214 51.0859ZM106.641 54.5389H106.25V52.1328H107.086C107.367 52.1328 107.685 52.1328 107.884 52.3048C107.956 52.3629 108.013 52.4364 108.053 52.5202C108.092 52.6039 108.113 52.6955 108.112 52.788C108.109 52.9682 108.035 53.1393 107.907 53.2653C107.779 53.3913 107.606 53.462 107.427 53.462V53.4733C107.564 53.5238 107.687 53.597 107.986 54.0806L108.281 54.5389H107.806L107.591 54.1609C107.299 53.6385 107.18 53.517 106.869 53.517H106.641V54.5389ZM107.086 52.4688H106.641V53.1927H107.116C107.301 53.1927 107.7 53.1882 107.7 52.8284C107.7 52.4688 107.314 52.4688 107.086 52.4688ZM108.262 51.781C107.956 51.5742 107.596 51.4626 107.227 51.4609H107.223C106.727 51.4609 106.253 51.6576 105.902 52.008C105.551 52.3585 105.353 52.8341 105.352 53.3307C105.351 53.7007 105.46 54.0625 105.664 54.3707C105.869 54.6786 106.159 54.9189 106.5 55.0611C106.84 55.2035 107.215 55.2413 107.577 55.17C107.939 55.0988 108.272 54.9217 108.534 54.661C108.795 54.4002 108.974 54.0673 109.047 53.7047C109.121 53.342 109.085 52.9657 108.945 52.6235C108.805 52.281 108.568 51.9879 108.262 51.781Z" fill="white"/>
<path d="M58.0876 31.6898C58.7407 32.6866 60.0418 31.029 59.9287 30.7208C59.8155 30.4126 57.4422 30.6902 58.0876 31.6898Z" fill="white"/>
<path fill-rule="evenodd" clip-rule="evenodd" d="M65.6424 26.0066C64.75 26.6127 63.6987 26.9403 62.621 26.9479C61.1691 26.9509 59.7753 26.3764 58.745 25.3503C57.7148 24.3242 57.1322 22.9302 57.125 21.4739C57.125 20.3929 57.4441 19.3361 58.0421 18.4368C58.6401 17.5374 59.4901 16.8358 60.4851 16.4204C61.4801 16.0049 62.5754 15.8943 63.6329 16.1024C64.6905 16.3105 65.6629 16.828 66.4277 17.5897C67.1924 18.3514 67.7152 19.3231 67.9301 20.3824C68.1449 21.4417 68.0425 22.5411 67.6353 23.542C67.2282 24.5429 66.5347 25.4005 65.6424 26.0066ZM64.7811 17.8772C64.1868 17.476 63.4874 17.2605 62.7711 17.2578C61.8085 17.2578 60.8851 17.6404 60.2032 18.3218C59.5213 19.0033 59.1364 19.928 59.1328 20.8935C59.1328 21.612 59.3451 22.3143 59.7427 22.9119C60.1404 23.5095 60.7057 23.9755 61.3672 24.2511C62.0287 24.5266 62.7568 24.5994 63.4595 24.4602C64.1623 24.3211 64.8081 23.9762 65.3156 23.4691C65.823 22.962 66.1693 22.3154 66.3107 21.6111C66.4521 20.9068 66.3823 20.1762 66.11 19.5116C65.8378 18.847 65.3753 18.2783 64.7811 17.8772Z" fill="white"/>
<path fill-rule="evenodd" clip-rule="evenodd" d="M88.8725 35.2969C88.1782 32.0732 85.3516 31.9737 83.8433 32.0881C83.3975 32.1215 82.8364 32.1832 82.1915 32.2541L82.1914 32.2541C80.5927 32.4298 78.4789 32.6621 76.3293 32.6621C72.2335 32.6621 67.6552 31.5268 64.1342 29.9086C63.5662 29.6478 63.792 29.5289 64.0486 29.3938C64.0671 29.3841 64.0858 29.3743 64.1043 29.3643C65.4247 28.6569 66.5741 28.0003 67.2727 26.882C67.8069 26.0241 67.6039 25.7467 67.0121 26.2296C66.1416 26.9659 65.0892 27.4594 63.9628 27.6593C62.8364 27.8592 61.6767 27.7583 60.6026 27.367C58.0602 26.4753 57.0774 24.0607 56.8509 23.4529C56.6245 22.845 56.3104 22.8005 56.3104 23.6922C56.3104 25.9394 57.3209 27.2928 57.6564 27.691C57.9918 28.0892 58.1499 28.4599 57.964 28.6823L57.8343 28.8377C57.3774 29.3844 56.9192 29.9328 56.8958 30.1649C56.9008 30.4125 56.8654 30.6592 56.7911 30.8956C56.7055 31.1387 56.4425 31.4597 56.041 31.9496C55.9213 32.0957 55.7892 32.2569 55.6459 32.4354C55.2892 32.8781 55.5071 33.3483 55.8062 33.6745C55.9152 33.7934 56.0123 33.9178 56.107 34.039C56.3259 34.3192 56.5315 34.5824 56.8402 34.7229C57.1014 34.8417 57.3521 34.8387 57.6192 34.8354C57.8044 34.8332 57.9976 34.8309 58.2076 34.869C58.7204 34.9622 59.3485 35.2545 59.8463 36.1398C60.0449 36.4893 60.2486 36.8939 60.4689 37.3313L60.4689 37.3313L60.4689 37.3313L60.469 37.3314L60.469 37.3314L60.469 37.3314C61.0497 38.4846 61.7455 39.8662 62.7647 41.0685C63.3773 41.7873 63.3884 43.0702 63.3925 43.5498L63.3929 43.5847C63.4334 47.4544 61.3696 51.1142 60.0578 53.4357C59.7459 53.9864 59.81 54.4418 60.2287 54.4439H62.7818C63.1258 54.4439 63.3138 54.09 63.3395 53.7257C63.5531 50.5658 65.3734 44.7495 66.7578 43.7563C69.0631 45.171 71.3514 48.204 70.2296 53.5183C70.2219 53.5551 70.2107 53.5978 70.1985 53.6443C70.1163 53.9589 69.9889 54.446 70.5864 54.446H72.802C73.084 54.446 73.5434 54.3379 73.5135 53.8296C73.449 52.669 72.8725 50.7914 72.2951 48.9103L72.2951 48.9103L72.295 48.9102C71.8387 47.4237 71.3816 45.935 71.176 44.7962C70.8835 43.1633 72.2015 40.2594 77.1688 42.4897C79.0919 40.8059 81.5852 41.831 80.5189 45.0779C79.4529 48.3249 78.547 49.7375 74.9279 53.5246C74.5134 53.9589 74.5004 54.4481 75.1413 54.4481H77.4659C77.9637 54.4481 78.1645 54.3104 78.3205 53.9143C78.3321 53.8851 78.3517 53.8297 78.3796 53.7514L78.3796 53.7513L78.3797 53.7511L78.3797 53.751C78.729 52.7682 80.3625 48.1718 83.3754 45.9379C83.6193 45.7559 83.8328 44.963 84.3115 43.1846L84.3475 43.051C85.9306 45.0779 86.1229 48.7886 83.4394 53.5626C83.1596 54.0583 83.3349 54.446 83.6531 54.446H85.7597C86.1528 54.446 86.266 54.234 86.4178 53.6581C86.5562 53.0674 86.7252 52.4841 86.9241 51.9108C87.0781 51.4869 87.1505 51.413 88.817 51.4298C89.3254 51.4298 89.3247 51.1787 89.3236 50.7721L89.3235 50.714C89.3235 50.245 89.3237 49.7749 89.324 49.3054L89.324 49.2843C89.3269 43.2943 89.3297 37.4119 88.8725 35.2969ZM82.9434 33.1641C83.488 34.1489 83.5179 34.7272 83.3706 35.2207C83.2232 35.7142 82.5159 35.9916 82.3665 35.9387C82.3715 35.0149 82.0879 34.1122 81.5547 33.3547C82.0118 33.2848 82.4755 33.217 82.9434 33.1641ZM78.462 36.816C78.9064 36.3712 78.9447 34.842 78.6308 33.6771C76.6948 33.7991 74.7514 33.7346 72.8281 33.4844C72.8335 33.6132 72.8387 33.7507 72.8442 33.8939L72.8442 33.894C72.8781 34.7768 72.9203 35.8771 73.0416 36.5259C73.1593 37.1592 73.4304 37.2036 73.6656 37.2397C74.58 37.3773 77.7592 37.5192 78.462 36.816ZM67.3273 35.8808C67.6352 34.7539 67.8559 33.6054 67.9875 32.4453C68.6028 32.6296 69.2247 32.7969 69.8526 32.9409C69.4254 35.5948 68.588 36.3425 68.1436 36.5183C67.8059 36.6538 67.0688 36.7301 67.3273 35.8808ZM60.92 36.0921C61.1727 36.5504 61.4161 36.9916 61.6333 37.2731C61.9648 35.1475 63.182 33.3624 63.8136 32.436L63.8136 32.4359L63.8137 32.4359C63.9108 32.2934 63.9941 32.1712 64.0582 32.0712C64.6031 31.223 64.4101 31.1292 63.4405 30.6583C63.0567 30.4719 62.5513 30.2263 61.9218 29.8515C60.0951 28.7629 59.6186 28.5447 59.0375 29.0425C58.5141 29.4936 57.9757 30.1989 57.8902 30.4319C57.8592 30.5165 57.8445 30.644 57.8281 30.786C57.7994 31.0351 57.7656 31.3286 57.6296 31.5121L56.8989 32.4779C56.5035 32.9446 56.5972 33.0504 56.9429 33.4408L56.943 33.4408C56.9989 33.504 57.0615 33.5747 57.1296 33.6555C57.3303 33.8913 57.6353 33.8896 58.0124 33.8874C58.5023 33.8846 59.1139 33.881 59.7767 34.3968C60.1418 34.6813 60.5415 35.4059 60.92 36.0921ZM86.0475 36.4809C85.9237 38.4634 85.4772 41.2676 84.785 41.5641C84.5573 41.6617 84.2881 41.5306 83.8292 41.3071C82.8927 40.8512 81.1666 40.0107 77.3926 39.9439C73.3974 39.874 70.3296 40.3929 69.7654 43.9872C69.7249 44.2476 69.5709 44.1991 69.4577 44.0782C68.4537 43.0031 67.5319 42.4757 66.1407 41.6798C66.0134 41.607 65.8822 41.5319 65.7467 41.454C64.1294 40.5242 63.0505 39.2619 62.8539 38.0207C62.6573 36.7795 63.106 35.1084 65.392 32.0584C65.6977 31.6489 65.7618 31.6729 66.9179 32.1055L67.0414 32.1516C66.9718 33.5945 66.6976 34.587 66.4676 35.4195L66.4676 35.4195C66.3728 35.7627 66.2855 36.0786 66.2231 36.3877C66.0095 37.4467 67.2102 37.686 68.2677 37.4467C69.3252 37.2074 70.3317 36.1018 70.7761 33.1598C71.1906 33.2445 71.5196 33.3017 71.9383 33.3716C72.0002 36.4216 72.1796 37.1184 72.3057 37.3959C72.5557 37.9572 73.1284 38.1435 73.5876 38.1795C76.0232 38.368 78.3777 38.2897 79.2215 37.4785C80.0655 36.6673 79.7727 34.6869 79.542 33.6088C79.9224 33.5728 80.2491 33.5389 80.6273 33.4881C81.2315 34.1974 81.5524 35.1017 81.5291 36.0298C81.5291 36.7287 82.3131 37.0888 83.4156 36.3453C84.5178 35.6019 84.3961 34.2824 83.8065 33.0878C86.2698 32.8768 86.1726 34.4521 86.0525 36.3994L86.0475 36.4809ZM87.5078 46.134C87.5763 46.7354 87.8604 46.4983 87.8988 46.2103V46.2017C88.0633 45.0072 88.322 39.0534 87.5655 38.2761C87.4586 38.166 87.2856 38.1596 87.2729 38.3121C87.222 38.9651 87.1377 39.6681 87.0585 40.329C86.9253 41.441 86.8063 42.4336 86.8841 42.8681C86.9315 43.1373 87.0152 43.5413 87.1068 43.9834C87.2668 44.7554 87.4508 45.6437 87.5078 46.134Z" fill="white"/>
</svg>
