<svg width="91" height="79" viewBox="0 0 91 79" fill="none" xmlns="http://www.w3.org/2000/svg">
<path d="M19.945 14.8179L22.614 12.3239L34.8159 0.873054L17.0023 6.42223L2.14304 20.3783M19.945 14.8179L2.14304 20.3783M19.945 14.8179L40.184 36.1062M2.14304 20.3783L22.3642 41.6479M76.4691 2.04876L58.6554 7.59794L49.4408 16.256L55.0408 22.1473M76.4691 2.04876L90.5013 16.8094L69.0847 36.9183L89.3094 58.1916L74.4502 72.1477L54.2139 50.8622L32.7972 70.972L18.7535 56.2001L40.1817 36.1025L19.9453 14.8179L22.6143 12.3239L34.8162 0.873063L55.0408 22.1473M76.4691 2.04876L55.0408 22.1473M40.184 36.1062L22.3642 41.6479M40.184 36.1062L18.7531 56.2001M22.3642 41.6479L0.951148 61.7605M18.7531 56.2001L0.951148 61.7605M18.7531 56.2001L32.7969 70.972L14.9833 76.5212L0.951148 61.7605M74.4498 72.1477L56.6362 77.6969L42.0115 62.314L54.2135 50.8622L74.4498 72.1477Z" stroke="white" stroke-width="0.7" stroke-linecap="round" stroke-linejoin="round"/>
</svg>
