<svg width="101" height="100" viewBox="0 0 101 100" fill="none" xmlns="http://www.w3.org/2000/svg">
<path d="M80.6114 37.7252L80.9102 22.9862L65.9899 23.2813L65.8623 29.5802L74.4061 29.4112L74.235 37.8513L80.6114 37.7252Z" fill="#734EE1"/>
<path d="M34.7734 62.0312C34.7734 65.0697 37.1853 67.5558 40.1198 67.5558H46.1496C48.7222 67.5558 50.8126 65.3854 50.8126 62.7415C50.8126 59.8609 49.5262 58.8349 47.6369 58.1641L37.9893 54.8493C36.0598 54.1785 34.7734 53.1525 34.7734 50.2718C34.7734 47.6279 36.8637 45.4576 39.4364 45.4576H45.4662C48.4409 45.497 50.8528 47.9436 50.8528 50.9821M42.4635 42.6953L42.4635 71.0086" stroke="white" stroke-width="0.834495" stroke-linecap="round" stroke-linejoin="round"/>
<path d="M42.1644 86.9979C59.376 86.9979 73.3288 73.2154 73.3288 56.2138C73.3288 39.2122 59.376 25.4297 42.1644 25.4297C24.9528 25.4297 11 39.2122 11 56.2138C11 73.2154 24.9528 86.9979 42.1644 86.9979Z" stroke="white" stroke-width="0.834495" stroke-linecap="round" stroke-linejoin="round"/>
<path d="M54.3438 21.2358C57.9092 16.255 63.7327 12.9997 70.3881 12.9997C81.2032 12.9997 89.9979 21.7064 89.9979 32.4133C89.9979 38.9238 86.7494 44.689 81.7974 48.2188" stroke="white" stroke-width="0.834495" stroke-linecap="round" stroke-linejoin="round"/>
</svg>
