<svg width="18" height="18" viewBox="0 0 18 18" fill="none" xmlns="http://www.w3.org/2000/svg">
<path d="M1.42439 6.10352H4.09387C4.87739 6.1108 5.44515 6.36057 5.79716 6.85242C6.14917 7.34428 6.26531 8.01608 6.14578 8.86784C6.09936 9.25704 5.99637 9.63877 5.837 10.0132C5.68211 10.3911 5.46606 10.7345 5.19951 11.0264C4.86742 11.4082 4.51222 11.6504 4.13371 11.7533C3.7552 11.8562 3.36335 11.9075 2.95834 11.9075H1.76305L1.38454 14H0L1.42439 6.10352ZM2.5898 7.35903L1.99215 10.663C2.03199 10.6703 2.07184 10.674 2.11168 10.674H2.25113C2.88862 10.6813 3.41992 10.6117 3.84485 10.4648C4.26978 10.3106 4.55545 9.77467 4.70148 8.85683C4.821 8.0859 4.70148 7.64163 4.34289 7.52423C3.99088 7.40682 3.54941 7.35176 3.01811 7.35903C2.93842 7.3663 2.86212 7.37004 2.78901 7.37004H2.57983L2.5898 7.35903ZM7.72297 4H9.09755L8.70908 6.10352H9.94421C10.6215 6.11828 11.1262 6.27246 11.4582 6.56608C11.7969 6.8597 11.8965 7.41784 11.7571 8.24009L11.0897 11.9075H9.6952L10.3327 8.40529C10.399 8.03811 10.3791 7.77753 10.2729 7.62335C10.1667 7.46916 9.93764 7.39207 9.58563 7.39207L8.47998 7.38106L7.6632 11.9075H6.28862L7.72297 4ZM13.2331 6.10352H15.9026C16.6861 6.1108 17.2539 6.36057 17.6059 6.85242C17.9579 7.34428 18.0741 8.01608 17.9545 8.86784C17.9081 9.25704 17.8051 9.63877 17.6458 10.0132C17.4909 10.3911 17.2748 10.7345 17.0083 11.0264C16.6762 11.4082 16.321 11.6504 15.9425 11.7533C15.564 11.8562 15.1721 11.9075 14.7671 11.9075H13.5718L13.1933 14H11.8088L13.2331 6.10352ZM14.3985 7.35903L13.8009 10.663C13.8407 10.6703 13.8806 10.674 13.9204 10.674H14.0599C14.6974 10.6813 15.2287 10.6117 15.6536 10.4648C16.0785 10.3106 16.3642 9.77467 16.5102 8.85683C16.6298 8.0859 16.5102 7.64163 16.1516 7.52423C15.7996 7.40682 15.3582 7.35176 14.8269 7.35903C14.7472 7.3663 14.6709 7.37004 14.5978 7.37004H14.3886L14.3985 7.35903Z" fill="white"/>
</svg>
