<svg width="18" height="18" viewBox="0 0 18 18" fill="none" xmlns="http://www.w3.org/2000/svg">
<path d="M17.64 2.39625C17.4713 1.95187 17.0662 1.3275 16.4925 0.883125C16.155 0.63 15.7725 0.3825 15.2325 0.225C14.6475 0.05625 13.9275 0 13.05 0H4.95C4.06687 0 3.3525 0.0562499 2.77313 0.230625C2.23313 0.39375 1.83375 0.635625 1.5075 0.88875C0.93375 1.3275 0.52875 1.9575 0.354375 2.40187C0.00562497 3.29625 0 4.30875 0 4.95V13.05C0 13.6912 0.00562497 14.7037 0.354375 15.6037C0.52875 16.0481 0.93375 16.6725 1.5075 17.1169C1.83937 17.37 2.23313 17.6175 2.77313 17.775C3.3525 17.9438 4.06687 18 4.95 18H13.05C13.9331 18 14.6475 17.9437 15.2269 17.7694C15.7669 17.6062 16.1663 17.3644 16.4925 17.1112C17.0662 16.6725 17.4713 16.0425 17.6456 15.5981C18 14.7037 18 13.6856 18 13.0444V4.94438C18 4.30312 17.9944 3.29062 17.6456 2.39062L17.64 2.39625ZM3.56625 12.375H2.89687V8.37562H3.56625V12.375ZM3.23438 7.70062C3.00937 7.70062 2.81812 7.515 2.81812 7.28437C2.81812 7.05375 3.00375 6.86812 3.23438 6.86812C3.465 6.86812 3.65625 7.05375 3.65625 7.28437C3.65062 7.515 3.465 7.70062 3.23438 7.70062ZM7.25625 12.4762C5.49 12.4762 4.37625 11.2162 4.37625 9.20812C4.37625 7.2 5.49 5.93437 7.25625 5.93437C9.0225 5.93437 10.1362 7.2 10.1362 9.20812C10.1362 11.2162 9.0225 12.4762 7.25625 12.4762ZM13.0837 12.4762C11.7563 12.4762 10.8225 11.745 10.7606 10.6537H11.3625C11.43 11.4131 12.1444 11.9306 13.14 11.9306C14.0906 11.9306 14.7712 11.4131 14.7712 10.6987C14.7712 10.1081 14.3606 9.75375 13.4213 9.5175L12.6337 9.315C11.4581 9.01688 10.935 8.52188 10.935 7.68375C10.935 6.66 11.8575 5.92875 13.1062 5.92875C14.3438 5.92875 15.2438 6.66 15.2831 7.66687H14.6812C14.625 6.9525 13.9894 6.47438 13.0894 6.47438C12.2119 6.47438 11.5594 6.96375 11.5594 7.66125C11.5594 8.20687 11.9531 8.5275 12.8869 8.76375L13.5731 8.93812C14.85 9.25875 15.3844 9.74813 15.3844 10.6312C15.3844 11.745 14.49 12.4762 13.0837 12.4762ZM9.52312 9.20812C9.52312 10.8675 8.64563 11.9194 7.25625 11.9194C5.86687 11.9194 4.995 10.8675 4.995 9.20812C4.995 7.54312 5.86687 6.49125 7.25625 6.49125C8.64563 6.49125 9.52312 7.54312 9.52312 9.20812Z" fill="white"/>
</svg>
