<svg width="32" height="32" viewBox="0 0 32 32" fill="none" xmlns="http://www.w3.org/2000/svg">
<rect width="32" height="32" rx="5" fill="white"/>
<path d="M5.63636 25.0044H9.45455V15.7317L4 11.6408V23.368C4 24.2721 4.73227 25.0044 5.63636 25.0044Z" fill="#0F0F0F"/>
<path d="M22.5455 25.0044H26.3636C27.2677 25.0044 28 24.2721 28 23.368V11.6408L22.5455 15.7317V25.0044Z" fill="#0F0F0F"/>
<path d="M22.5455 8.64077V15.7317L28 11.6408V9.45896C28 7.43668 25.6914 6.28168 24.0727 7.49532L22.5455 8.64077Z" fill="#0F0F0F"/>
<path fill-rule="evenodd" clip-rule="evenodd" d="M9.45455 15.7317V8.64076L16 13.5498L22.5455 8.64077V15.7317L16 20.6408L9.45455 15.7317Z" fill="#0F0F0F"/>
<path d="M4 9.45896V11.6408L9.45455 15.7317V8.64076L7.92727 7.49532C6.30864 6.28168 4 7.43668 4 9.45896Z" fill="#0F0F0F"/>
</svg>
