<svg width="45" height="14" viewBox="0 0 45 14" fill="none" xmlns="http://www.w3.org/2000/svg">
<path d="M4.86761 10.5L1.57761 1.736H1.52161C1.54028 1.92267 1.55428 2.16067 1.56361 2.45C1.58228 2.73933 1.59628 3.05667 1.60561 3.402C1.61494 3.738 1.61961 4.08333 1.61961 4.438V10.5H0.457609V0.503999H2.31961L5.39961 8.694H5.45561L8.59161 0.503999H10.4396V10.5H9.19361V4.354C9.19361 4.02733 9.19828 3.70533 9.20761 3.388C9.21694 3.06133 9.23094 2.758 9.24961 2.478C9.26828 2.18867 9.28228 1.946 9.29161 1.75H9.23561L5.90361 10.5H4.86761ZM11.8148 2.996H13.1308L14.7548 7.266C14.8481 7.518 14.9321 7.76067 15.0068 7.994C15.0908 8.22733 15.1654 8.456 15.2308 8.68C15.2961 8.89467 15.3474 9.10467 15.3848 9.31H15.4408C15.4968 9.07667 15.5854 8.77333 15.7068 8.4C15.8281 8.01733 15.9541 7.63467 16.0848 7.252L17.6108 2.996H18.9408L15.7068 11.536C15.5294 12.0027 15.3194 12.4087 15.0768 12.754C14.8434 13.1087 14.5541 13.3793 14.2088 13.566C13.8728 13.762 13.4621 13.86 12.9768 13.86C12.7528 13.86 12.5568 13.846 12.3888 13.818C12.2208 13.7993 12.0761 13.776 11.9548 13.748V12.768C12.0574 12.7867 12.1788 12.8053 12.3188 12.824C12.4681 12.8427 12.6221 12.852 12.7808 12.852C13.0701 12.852 13.3174 12.796 13.5228 12.684C13.7374 12.5813 13.9194 12.4273 14.0688 12.222C14.2181 12.026 14.3441 11.7927 14.4468 11.522L14.8388 10.528L11.8148 2.996ZM25.9655 7.826C25.9655 8.42333 25.8208 8.932 25.5315 9.352C25.2422 9.76267 24.8268 10.08 24.2855 10.304C23.7535 10.528 23.1235 10.64 22.3955 10.64C22.0222 10.64 21.6628 10.6213 21.3175 10.584C20.9815 10.5467 20.6735 10.4953 20.3935 10.43C20.1135 10.3553 19.8662 10.2667 19.6515 10.164V8.96C19.9875 9.10933 20.4028 9.24467 20.8975 9.366C21.4015 9.48733 21.9195 9.548 22.4515 9.548C22.9462 9.548 23.3615 9.48267 23.6975 9.352C24.0335 9.22133 24.2855 9.03467 24.4535 8.792C24.6215 8.54933 24.7055 8.26467 24.7055 7.938C24.7055 7.61133 24.6355 7.336 24.4955 7.112C24.3555 6.888 24.1128 6.68267 23.7675 6.496C23.4315 6.3 22.9602 6.09467 22.3535 5.88C21.9242 5.72133 21.5462 5.55333 21.2195 5.376C20.9022 5.18933 20.6362 4.97933 20.4215 4.746C20.2068 4.51267 20.0435 4.24667 19.9315 3.948C19.8288 3.64933 19.7775 3.304 19.7775 2.912C19.7775 2.38 19.9128 1.92733 20.1835 1.554C20.4542 1.17133 20.8275 0.877333 21.3035 0.672C21.7888 0.466666 22.3442 0.363999 22.9695 0.363999C23.5202 0.363999 24.0242 0.415333 24.4815 0.517999C24.9388 0.620666 25.3542 0.756 25.7275 0.924L25.3355 2.002C24.9902 1.85267 24.6122 1.72667 24.2015 1.624C23.8002 1.52133 23.3802 1.47 22.9415 1.47C22.5215 1.47 22.1715 1.53067 21.8915 1.652C21.6115 1.77333 21.4015 1.946 21.2615 2.17C21.1215 2.38467 21.0515 2.63667 21.0515 2.926C21.0515 3.262 21.1215 3.542 21.2615 3.766C21.4015 3.99 21.6302 4.19067 21.9475 4.368C22.2648 4.54533 22.6942 4.73667 23.2355 4.942C23.8235 5.15667 24.3182 5.39 24.7195 5.642C25.1302 5.88467 25.4382 6.17867 25.6435 6.524C25.8582 6.86933 25.9655 7.30333 25.9655 7.826ZM36.7011 5.488C36.7011 6.3 36.5891 7.03733 36.3651 7.7C36.1504 8.36267 35.8284 8.92267 35.3991 9.38C34.9698 9.83733 34.4331 10.1733 33.7891 10.388L36.1831 12.88H34.3771L32.4451 10.626C32.3891 10.626 32.3284 10.626 32.2631 10.626C32.2071 10.6353 32.1511 10.64 32.0951 10.64C31.3111 10.64 30.6298 10.5187 30.0511 10.276C29.4724 10.024 28.9918 9.674 28.6091 9.226C28.2264 8.76867 27.9418 8.22267 27.7551 7.588C27.5684 6.95333 27.4751 6.24867 27.4751 5.474C27.4751 4.44733 27.6431 3.55133 27.9791 2.786C28.3151 2.02067 28.8238 1.42333 29.5051 0.994C30.1958 0.564666 31.0638 0.35 32.1091 0.35C33.1078 0.35 33.9478 0.564666 34.6291 0.994C35.3104 1.414 35.8238 2.01133 36.1691 2.786C36.5238 3.55133 36.7011 4.452 36.7011 5.488ZM28.8051 5.488C28.8051 6.328 28.9218 7.05133 29.1551 7.658C29.3884 8.26467 29.7478 8.73133 30.2331 9.058C30.7278 9.38467 31.3484 9.548 32.0951 9.548C32.8511 9.548 33.4671 9.38467 33.9431 9.058C34.4284 8.73133 34.7878 8.26467 35.0211 7.658C35.2544 7.05133 35.3711 6.328 35.3711 5.488C35.3711 4.228 35.1098 3.24333 34.5871 2.534C34.0644 1.81533 33.2384 1.456 32.1091 1.456C31.3531 1.456 30.7278 1.61933 30.2331 1.946C29.7478 2.26333 29.3884 2.72533 29.1551 3.332C28.9218 3.92933 28.8051 4.648 28.8051 5.488ZM38.9166 10.5V0.503999H40.1766V9.38H44.5446V10.5H38.9166Z" fill="white"/>
</svg>
