<svg width="18" height="18" viewBox="0 0 18 18" fill="none" xmlns="http://www.w3.org/2000/svg">
<g clip-path="url(#clip0_1317_738)">
<path d="M9 18C13.9706 18 18 13.9706 18 9C18 4.02944 13.9706 0 9 0C4.02944 0 0 4.02944 0 9C0 13.9706 4.02944 18 9 18Z" fill="#4353FF"/>
<path d="M11.6463 7.92906L10.8306 10.4997C10.8306 10.3028 10.2681 6.03906 10.2681 6.03906C8.97438 6.03906 8.28813 6.95594 7.92813 7.92906L6.9325 10.5053C6.9325 10.3197 6.79188 7.95156 6.79188 7.95156C6.74385 7.43891 6.50949 6.96167 6.13318 6.61024C5.75686 6.25881 5.26473 6.05759 4.75 6.04469L5.8075 12.5022C7.1575 12.5022 7.88875 11.5853 8.26562 10.6122L9.10938 8.41844C9.10938 8.50844 9.67188 12.5022 9.67188 12.5022C10.2239 12.5015 10.7614 12.325 11.2064 11.9983C11.6514 11.6717 11.9808 11.2118 12.1469 10.6853L14.0594 6.03906C12.7094 6.03906 12.0006 6.95594 11.6406 7.92906H11.6463Z" fill="white"/>
</g>
<defs>
<clipPath id="clip0_1317_738">
<rect width="18" height="18" fill="white"/>
</clipPath>
</defs>
</svg>
