<svg width="18" height="18" viewBox="0 0 18 18" fill="none" xmlns="http://www.w3.org/2000/svg">
<path d="M3.45606 16.2007L2 0H18L16.5424 16.1981L9.99019 18L3.45606 16.2007Z" fill="white"/>
<path d="M10.0019 7.28907H7.36232L7.18002 5.11911H10.0019V3H5L5.53802 9.40813H10.0019V7.28907ZM10.0019 12.7926L9.9932 12.795L7.77159 12.1578L7.62957 10.4677H5.62715L5.90661 13.795L9.99272 15L10.0019 14.9973V12.7926Z" fill="#0F0F0F"/>
<path d="M10.0032 7.28907V9.40813H12.4594L12.2279 12.1564L10.0032 12.7943V14.999L14.0925 13.795L14.5912 7.85811L14.6399 7.28907H10.0032ZM10.0032 3V5.11911H14.8214L15 3H10.0032Z" fill="#0F0F0F"/>
</svg>
