<svg width="101" height="100" viewBox="0 0 101 100" fill="none" xmlns="http://www.w3.org/2000/svg">
<path d="M34.4444 11V22.55M65.5556 11V22.55M16.9444 38.2959H83.0556M85 36.025V68.75C85 80.3 79.1667 88 65.5556 88H34.4444C20.8333 88 15 80.3 15 68.75V36.025C15 24.475 20.8333 16.775 34.4444 16.775H65.5556C79.1667 16.775 85 24.475 85 36.025Z" stroke="white" stroke-miterlimit="10" stroke-linecap="round" stroke-linejoin="round"/>
<path d="M41.8783 69.2575H41.8789C44.6298 69.2544 47.2684 68.1743 49.2156 66.2521C51.1629 64.3298 52.2595 61.722 52.2627 59.0006L52.2627 58.9994C52.2608 57.4795 52.7118 55.992 53.5601 54.7222C54.4085 53.4522 55.6172 52.4557 57.0365 51.8575C58.4557 51.2593 60.0223 51.0862 61.5409 51.3602C63.0594 51.6341 64.462 52.3426 65.5743 53.3967C66.6866 54.4508 67.4596 55.8037 67.798 57.2867C68.1364 58.7696 68.0257 60.3181 67.4793 61.7396C66.9328 63.1612 65.9746 64.3938 64.7227 65.2833C63.8589 65.8972 62.8817 66.3288 61.852 66.5572C62.0379 66.3322 62.1402 66.0481 62.1376 65.7535C62.1347 65.4235 62.0006 65.1092 61.7662 64.8778C61.5321 64.6467 61.2166 64.5167 60.8882 64.5139C60.5598 64.5111 60.2422 64.6356 60.0041 64.8627L60.004 64.8626L59.9978 64.8687L57.7169 67.1204L57.7168 67.1205C57.4798 67.3545 57.3455 67.6732 57.3455 68.0069C57.3455 68.3406 57.4798 68.6593 57.7168 68.8933L57.7169 68.8934L59.9978 71.1451L59.9978 71.1452L60.0041 71.1512C60.2422 71.3782 60.5598 71.5028 60.8882 71.5C61.2166 71.4971 61.5321 71.3671 61.7662 71.136C62.0006 70.9046 62.1347 70.5903 62.1376 70.2603C62.1405 69.9304 62.0119 69.6137 61.7816 69.3783L61.7817 69.3783L61.7755 69.3722L61.5499 69.1495C63.1891 68.9244 64.7561 68.3145 66.1163 67.3637C67.7806 66.2004 69.0619 64.5781 69.799 62.6987C70.5362 60.8193 70.6962 58.7668 70.2589 56.7979C69.8216 54.829 68.8066 53.0318 67.3416 51.6303C65.8768 50.229 64.0269 49.2853 62.0234 48.9163C60.0199 48.5473 57.9506 48.7691 56.0736 49.5543C54.1966 50.3395 52.5945 51.6536 51.468 53.3334C50.3415 55.0134 49.7409 56.9844 49.742 59.0003V59.0006C49.7439 60.5205 49.2929 62.008 48.4446 63.2778C47.5962 64.5478 46.3875 65.5443 44.9683 66.1425C43.549 66.7407 41.9824 66.9137 40.4638 66.6398C38.9453 66.3659 37.5427 65.6574 36.4304 64.6033C35.3181 63.5492 34.5451 62.1963 34.2067 60.7133C33.8683 59.2304 33.979 57.6819 34.5254 56.2604C35.0719 54.8388 36.0301 53.6062 37.282 52.7167C38.1447 52.1036 39.1206 51.6723 40.1488 51.4436C40.068 51.5379 40.0014 51.6439 39.9516 51.7583C39.885 51.9113 39.8499 52.0761 39.8484 52.2431C39.8469 52.4101 39.8792 52.5755 39.9431 52.7297L39.9431 52.7297C40.007 52.8839 40.1012 53.0235 40.2198 53.1406C40.3384 53.2577 40.4791 53.35 40.6335 53.4123C40.7879 53.4747 40.9531 53.506 41.1196 53.5046C41.286 53.5031 41.4507 53.469 41.604 53.404C41.7558 53.3396 41.8937 53.2461 42.0096 53.1286L44.2879 50.8796L44.2879 50.8795C44.5249 50.6455 44.6592 50.3268 44.6592 49.9931C44.6592 49.6594 44.5249 49.3407 44.2879 49.1066L44.2879 49.1066L42.0069 46.8549L42.0069 46.8548L42.0006 46.8488C41.7625 46.6218 41.4449 46.4972 41.1165 46.5C40.7881 46.5029 40.4726 46.6329 40.2385 46.864C40.0041 47.0954 39.87 47.4097 39.8671 47.7397C39.8642 48.0696 39.9928 48.3863 40.2231 48.6217L40.223 48.6217L40.2292 48.6278L40.4543 48.85C38.1475 49.1657 36.0021 50.2413 34.3769 51.9205C32.4935 53.8665 31.4598 56.467 31.5012 59.1608C31.5426 61.8546 32.6556 64.4229 34.5979 66.3115C36.5399 68.1999 39.1551 69.2573 41.8783 69.2575Z" fill="#734EE1" stroke="#734EE1"/>
</svg>
