<svg width="147" height="111" viewBox="0 0 147 111" fill="none" xmlns="http://www.w3.org/2000/svg">
<path d="M92.7127 12.0938L111.696 30.9482L115.849 35.0552L144.058 44.7466L120.941 21.7677L92.7127 12.0938Z" fill="#0F0F0F"/>
<path d="M26.0543 12.0938L59.3925 45.1876L68.6182 36.0232L54.2827 21.7677L26.0543 12.0938Z" fill="#0F0F0F"/>
<path d="M82.5065 68.176L110.745 77.8382L144.058 44.7517L115.849 35.0602L82.5065 68.176Z" fill="#0F0F0F"/>
<path d="M82.5065 68.1742L115.849 101.261L144.058 110.952L110.745 77.8365L82.5065 68.1742Z" fill="#0F0F0F"/>
<path d="M92.7127 124.237L120.941 133.911L144.058 110.949L115.849 101.258L92.7127 124.237Z" fill="#0F0F0F"/>
<path d="M26.0568 124.241L54.2853 133.915L78.3786 109.986L59.395 91.1297L26.0568 124.241Z" fill="#0F0F0F"/>
<path d="M92.7127 12.0938L111.696 30.9482L115.849 35.0552M92.7127 12.0938L120.941 21.7677L144.058 44.7466L115.849 35.0552M92.7127 12.0938L59.3925 45.1876M115.849 35.0552L82.5101 68.1651L115.848 101.257L92.7119 124.236L59.3928 91.125L26.0547 124.236L2.9375 101.257L36.2565 68.1651L2.9375 35.0552L26.0543 12.0938M26.0543 12.0938L54.2827 21.7677L68.6182 36.0232L59.3925 45.1876M26.0543 12.0938L59.3925 45.1876M82.5065 68.176L110.745 77.8382L144.058 44.7517L115.849 35.0602L82.5065 68.176ZM82.5065 68.1742L115.849 101.261L144.058 110.952L110.745 77.8365L82.5065 68.1742ZM92.7127 124.237L120.941 133.911L144.058 110.949L115.849 101.258L92.7127 124.237ZM26.0568 124.241L54.2853 133.915L78.3786 109.986L59.395 91.1297L26.0568 124.241Z" stroke="white" stroke-width="0.5" stroke-linecap="round" stroke-linejoin="round"/>
</svg>
