<svg width="18" height="18" viewBox="0 0 18 18" fill="none" xmlns="http://www.w3.org/2000/svg">
<path d="M8.27473 0.192289C8.71696 -0.0635315 9.28081 -0.0646609 9.71198 0.192289L16.3145 3.99459C16.7274 4.23177 17.0038 4.70219 17 5.18842V12.8122C17.0027 13.3188 16.6992 13.7994 16.2636 14.032L9.69651 17.8168C9.47189 17.9436 9.21813 18.0067 8.9616 17.9994C8.70506 17.9922 8.4551 17.9149 8.23769 17.7756L6.267 16.6123C6.13267 16.5304 5.98176 16.4654 5.88668 16.3327C5.9707 16.2175 6.11996 16.2028 6.24157 16.152C6.51575 16.0628 6.76672 15.9261 7.01879 15.7816C7.08236 15.7364 7.16031 15.7533 7.22111 15.794L8.90159 16.7868C9.02155 16.8574 9.14316 16.7642 9.24598 16.7049L15.6943 12.9873C15.7739 12.9478 15.8181 12.8619 15.8115 12.7727V5.2223C15.8203 5.12065 15.7634 5.02804 15.6733 4.98681L9.12271 1.2184C9.08496 1.19172 9.04017 1.17739 8.99427 1.17729C8.94837 1.17719 8.90352 1.19132 8.86566 1.21783L2.3245 4.99416C2.23606 5.03538 2.17525 5.12687 2.18631 5.22852V12.7789C2.17857 12.8681 2.225 12.9523 2.30516 12.9907L4.05308 13.9987C4.38143 14.1794 4.78442 14.2811 5.14594 14.1484C5.30415 14.0875 5.44034 13.9786 5.53628 13.8364C5.63222 13.6942 5.68331 13.5254 5.6827 13.3527L5.68436 5.84746C5.67662 5.73621 5.77944 5.64416 5.88502 5.65545H6.72526C6.83582 5.65263 6.92261 5.77235 6.90768 5.88416L6.90602 13.4368C6.90658 14.1077 6.63681 14.8373 6.0293 15.1666C5.28082 15.5619 4.35545 15.4789 3.61582 15.0988L1.73633 14.0371C1.2941 13.8112 0.997255 13.3233 1.00002 12.8173V5.1935C1.00186 4.94572 1.06854 4.70294 1.19315 4.49035C1.31775 4.27775 1.49575 4.10308 1.7087 3.98443L8.27473 0.192289ZM10.1785 5.477C11.1332 5.42052 12.1553 5.43972 13.0143 5.92031C13.6794 6.28851 14.0481 7.06105 14.0602 7.81666C14.0414 7.91831 13.9375 7.97478 13.8424 7.96744C13.566 7.96687 13.2885 7.97139 13.011 7.96574C12.8933 7.97026 12.8253 7.85958 12.8104 7.75341C12.7308 7.39198 12.5378 7.03451 12.2051 6.86001C11.6943 6.59854 11.1017 6.61153 10.5445 6.61718C10.1376 6.63977 9.70037 6.67534 9.35599 6.91931C9.09065 7.10454 9.01105 7.48403 9.10557 7.77882C9.19402 7.99511 9.4389 8.06457 9.63846 8.12895C10.7894 8.43616 12.0083 8.41131 13.1376 8.81057C13.6047 8.97547 14.0619 9.29624 14.2222 9.79602C14.4311 10.4658 14.3399 11.2666 13.8739 11.8042C13.4958 12.2469 12.9452 12.4819 12.3952 12.6185C11.6639 12.7851 10.9055 12.7891 10.1631 12.7145C9.46489 12.6332 8.73852 12.4457 8.19955 11.9601C7.73852 11.5512 7.51409 10.9142 7.5362 10.2998C7.54173 10.1958 7.64289 10.1236 7.74074 10.132H8.56992C8.68158 10.1241 8.7634 10.2224 8.76892 10.3297C8.82033 10.6685 8.94692 11.0356 9.24101 11.2332C9.80817 11.6071 10.5196 11.5811 11.1686 11.5918C11.7064 11.5676 12.3101 11.5602 12.7496 11.1965C12.9817 10.9893 13.0497 10.6431 12.9873 10.3449C12.9193 10.0931 12.6556 9.97617 12.4345 9.89315C11.2985 9.52608 10.0658 9.65936 8.94084 9.24372C8.48424 9.07882 8.04256 8.76709 7.86732 8.28764C7.62244 7.60997 7.73465 6.77022 8.25041 6.25067C8.74792 5.73395 9.4776 5.5346 10.1686 5.46344L10.1785 5.477Z" fill="#689F63"/>
</svg>
