<svg width="119" height="191" viewBox="0 0 119 191" fill="none" xmlns="http://www.w3.org/2000/svg">
<path d="M84.435 0.0937428C71.3194 2.51534 58.769 7.34873 47.5002 14.3179C36.2314 21.2871 26.465 30.2556 18.7586 40.7113C11.0522 51.1671 5.55674 62.9053 2.58596 75.2559C-0.384821 87.6064 -0.77273 100.327 1.44438 112.692C3.66149 125.058 8.4402 136.825 15.5077 147.322C22.5751 157.819 31.7929 166.84 42.6348 173.871C53.4767 180.903 65.7302 185.805 78.6959 188.3C91.6616 190.795 105.085 190.832 118.201 188.411L109.76 141.331C103.202 142.542 96.4898 142.523 90.007 141.276C83.5241 140.029 77.3974 137.577 71.9764 134.062C66.5555 130.546 61.9466 126.035 58.4129 120.787C54.8791 115.538 52.4898 109.655 51.3812 103.472C50.2727 97.2898 50.4666 90.9293 51.952 84.754C53.4374 78.5788 56.1851 72.7096 60.0383 67.4818C63.8915 62.2539 68.7747 57.7696 74.4091 54.2851C80.0435 50.8005 86.3187 48.3838 92.8765 47.173L84.435 0.0937428Z" fill="#734EE1"/>
</svg>
