<svg width="18" height="18" viewBox="0 0 18 18" fill="none" xmlns="http://www.w3.org/2000/svg">
<g clip-path="url(#clip0_1317_1065)">
<path d="M0 9V0H18V18H0" fill="white"/>
<path d="M3.94531 9.02781V9.76131H6.28531V16.4213H7.94581V9.76131H10.2858V9.04131C10.2858 8.63631 10.2858 8.30781 10.2678 8.29881C10.2678 8.28531 8.84131 8.28081 7.10881 8.28081L3.95881 8.29431V9.03231L3.94531 9.02781ZM14.4618 8.27631C14.9208 8.38431 15.2718 8.59131 15.5868 8.91981C15.7533 9.09981 16.0008 9.41481 16.0188 9.49581C16.0188 9.52281 15.2403 10.0493 14.7678 10.3418C14.7498 10.3553 14.6778 10.2788 14.6058 10.1618C14.3718 9.82881 14.1333 9.68481 13.7598 9.65781C13.2198 9.62181 12.8598 9.90531 12.8598 10.3778C12.8598 10.5218 12.8868 10.6028 12.9408 10.7198C13.0623 10.9673 13.2873 11.1158 13.9848 11.4218C15.2718 11.9753 15.8298 12.3398 16.1673 12.8618C16.5498 13.4468 16.6353 14.3648 16.3788 15.0533C16.0908 15.8048 15.3888 16.3133 14.3853 16.4798C14.0703 16.5338 13.3503 16.5248 13.0128 16.4663C12.2928 16.3313 11.6043 15.9713 11.1813 15.5078C11.0148 15.3278 10.6953 14.8463 10.7133 14.8148L10.8843 14.7068L11.5593 14.3153L12.0678 14.0183L12.1848 14.1758C12.3333 14.4098 12.6663 14.7248 12.8598 14.8328C13.4448 15.1343 14.2278 15.0938 14.6148 14.7428C14.7813 14.5898 14.8533 14.4278 14.8533 14.2028C14.8533 13.9958 14.8218 13.9013 14.7183 13.7438C14.5743 13.5458 14.2863 13.3838 13.4763 13.0238C12.5448 12.6278 12.1488 12.3758 11.7798 11.9888C11.5683 11.7548 11.3748 11.3903 11.2848 11.0888C11.2173 10.8278 11.1948 10.1888 11.2578 9.93231C11.4513 9.03231 12.1308 8.40231 13.1028 8.22231C13.4178 8.15931 14.1603 8.18631 14.4708 8.26731L14.4618 8.27631Z" fill="#0F0F0F"/>
</g>
<defs>
<clipPath id="clip0_1317_1065">
<rect width="18" height="18" fill="white"/>
</clipPath>
</defs>
</svg>
