<svg width="18" height="18" viewBox="0 0 18 18" fill="none" xmlns="http://www.w3.org/2000/svg">
<path d="M8.89173 0.000783888C8.14953 0.00419544 7.44085 0.0668047 6.81766 0.176006C4.97997 0.497141 4.64644 1.16904 4.64644 2.40873V4.04564H8.98726V4.59116H3.01762C1.75601 4.59116 0.650491 5.34139 0.305621 6.76783C-0.0930019 8.40314 -0.11065 9.425 0.305621 11.1324C0.614223 12.4038 1.35124 13.309 2.61284 13.309H4.1055V11.347C4.1055 9.92952 5.34524 8.67862 6.81749 8.67862H11.1535C12.3605 8.67862 13.3247 7.69552 13.3247 6.49715V2.40809C13.3247 1.24432 12.3322 0.370769 11.1535 0.175366C10.4077 0.0525659 9.63393 -0.00322024 8.89157 0.000143267L8.89173 0.000783888ZM6.54403 1.31719C6.99252 1.31719 7.3586 1.68542 7.3586 2.13805C7.3586 2.58908 6.99236 2.95394 6.54403 2.95394C6.09408 2.95394 5.72946 2.58924 5.72946 2.13805C5.72946 1.68542 6.09408 1.31719 6.54403 1.31719Z" fill="url(#paint0_linear_1317_208)"/>
<path d="M13.8656 4.59009V6.49768C13.8656 7.97618 12.5985 9.22052 11.1536 9.22052H6.81768C5.62991 9.22052 4.64646 10.226 4.64646 11.402V15.491C4.64646 16.6548 5.66958 17.3394 6.81768 17.6725C8.19182 18.0723 9.51025 18.1445 11.1536 17.6725C12.2465 17.3596 13.3249 16.7295 13.3249 15.491V13.8541H8.9889V13.3086H15.4961C16.7577 13.3086 17.2285 12.4381 17.6673 11.1319C18.1205 9.7867 18.1012 8.4924 17.6673 6.7674C17.3555 5.52499 16.76 4.59073 15.4961 4.59073H13.8673L13.8656 4.59009ZM11.4273 14.9465C11.8772 14.9465 12.2418 15.3112 12.2418 15.7624C12.2418 16.215 11.8772 16.5832 11.4273 16.5832C10.9788 16.5832 10.6127 16.215 10.6127 15.7624C10.6127 15.3113 10.9789 14.9465 11.4273 14.9465Z" fill="url(#paint1_linear_1317_208)"/>
<defs>
<linearGradient id="paint0_linear_1317_208" x1="-0.000389054" y1="0.000583686" x2="13.417" y2="11.5407" gradientUnits="userSpaceOnUse">
<stop stop-color="#5A9FD4"/>
<stop offset="1" stop-color="#306998"/>
</linearGradient>
<linearGradient id="paint1_linear_1317_208" x1="11.3249" y1="15.6301" x2="7.77814" y2="10.6137" gradientUnits="userSpaceOnUse">
<stop stop-color="#FFD43B"/>
<stop offset="1" stop-color="#FFE873"/>
</linearGradient>
</defs>
</svg>
