<svg width="18" height="18" viewBox="0 0 18 18" fill="none" xmlns="http://www.w3.org/2000/svg">
<g clip-path="url(#clip0_1317_641)">
<path d="M9.21076 10.2143C11.985 10.2143 14.234 8.03967 14.234 5.35714C14.234 2.67462 11.985 0.5 9.21076 0.5C6.43649 0.5 4.1875 2.67462 4.1875 5.35714C4.1875 8.03967 6.43649 10.2143 9.21076 10.2143Z" fill="#036C70"/>
<path d="M13.3937 14.2641C15.9368 14.2641 17.9984 12.2707 17.9984 9.81176C17.9984 7.35278 15.9368 5.35938 13.3937 5.35938C10.8506 5.35938 8.78906 7.35278 8.78906 9.81176C8.78906 12.2707 10.8506 14.2641 13.3937 14.2641Z" fill="#1A9BA1"/>
<path d="M9.83939 17.4981C11.8045 17.4981 13.3975 15.9578 13.3975 14.0577C13.3975 12.1575 11.8045 10.6172 9.83939 10.6172C7.87428 10.6172 6.28125 12.1575 6.28125 14.0577C6.28125 15.9578 7.87428 17.4981 9.83939 17.4981Z" fill="#37C6D0"/>
<path opacity="0.1" d="M10.0487 4.88134V13.519C10.0466 13.8191 9.85853 14.0887 9.5715 14.203C9.4801 14.2404 9.38189 14.2596 9.28266 14.2597H6.28545C6.28126 14.1909 6.28126 14.1261 6.28126 14.0573C6.27987 13.9897 6.28266 13.9221 6.28964 13.8549C6.36625 12.5611 7.19058 11.4195 8.42034 10.9042V10.1513C5.68346 9.73197 3.81636 7.2467 4.25007 4.60032C4.25308 4.582 4.25619 4.56368 4.25941 4.54538C4.28025 4.40888 4.30961 4.27371 4.34732 4.14062H9.28267C9.70507 4.14218 10.0471 4.4729 10.0487 4.88134Z" fill="black"/>
<path opacity="0.2" d="M8.86415 4.54688H4.25949C3.79434 7.18848 5.63193 9.69454 8.36387 10.1443C8.44659 10.1579 8.52965 10.1695 8.61298 10.1791C7.31531 10.7741 6.36968 12.464 6.28931 13.8564C6.28234 13.9236 6.27954 13.9912 6.28093 14.0588C6.28093 14.1276 6.28093 14.1923 6.28511 14.2612C6.29267 14.3972 6.31086 14.5325 6.33953 14.6659H8.86372C9.17412 14.6639 9.45297 14.482 9.57115 14.2045C9.60981 14.1161 9.62974 14.0212 9.62976 13.9252V5.28759C9.62817 4.87931 9.28639 4.54866 8.86415 4.54688Z" fill="black"/>
<path opacity="0.2" d="M8.86411 4.54688H4.25946C3.7944 7.18872 5.63227 9.6949 8.36447 10.1446C8.42036 10.1538 8.4764 10.1621 8.53258 10.1694C7.27676 10.8073 6.36839 12.4932 6.28969 13.8564H8.86411C9.28586 13.8533 9.62697 13.5235 9.63016 13.1157V5.28759C9.62855 4.87915 9.28652 4.54843 8.86411 4.54688Z" fill="black"/>
<path opacity="0.2" d="M8.44536 4.54688H4.25932C3.82018 7.04081 5.43634 9.44249 7.97235 10.0646C7.01209 11.1254 6.42312 12.4526 6.28956 13.8564H8.44537C8.86778 13.8548 9.20981 13.5241 9.21142 13.1157V5.28759C9.21118 4.8786 8.86835 4.5471 8.44536 4.54688Z" fill="black"/>
<path d="M0.767302 4.54688H8.442C8.86577 4.54688 9.2093 4.87905 9.2093 5.2888V12.7097C9.2093 13.1195 8.86577 13.4516 8.442 13.4516H0.767302C0.343533 13.4516 0 13.1195 0 12.7097V5.2888C0 4.87905 0.343533 4.54688 0.767302 4.54688Z" fill="url(#paint0_linear_1317_641)"/>
<path d="M3.42845 8.90629C3.24864 8.79096 3.09844 8.63743 2.98933 8.45741C2.88362 8.26922 2.83093 8.05747 2.83654 7.84338C2.82713 7.55352 2.92829 7.27043 3.12077 7.04803C3.32304 6.82535 3.58448 6.66045 3.87677 6.57121C4.20989 6.46519 4.55879 6.41295 4.90947 6.4166C5.37062 6.4003 5.83113 6.46265 6.26993 6.60077V7.53172C6.07927 7.42004 5.87161 7.33808 5.65458 7.28887C5.41909 7.23303 5.17746 7.20503 4.935 7.20548C4.67932 7.1964 4.42527 7.2484 4.19532 7.35686C4.01779 7.4309 3.90267 7.59978 3.9023 7.78672C3.90158 7.90012 3.94663 8.00932 4.02788 8.09111C4.12385 8.18752 4.23737 8.26601 4.36277 8.32263C4.5023 8.38982 4.71161 8.47914 4.99068 8.59059C5.0214 8.59998 5.05135 8.61162 5.08026 8.6254C5.35492 8.72919 5.61989 8.85554 5.87226 9.00304C6.06338 9.11699 6.22378 9.27319 6.34026 9.4588C6.45968 9.66921 6.51757 9.90708 6.5077 10.1469C6.52133 10.4445 6.42718 10.7374 6.24147 10.975C6.05637 11.1935 5.80889 11.3546 5.52984 11.4381C5.20162 11.5376 4.85906 11.5857 4.51514 11.5806C4.20657 11.5819 3.89845 11.5575 3.59421 11.5077C3.33732 11.4671 3.08663 11.3958 2.84784 11.2956V10.3141C3.07609 10.4717 3.3311 10.5895 3.60133 10.6622C3.87065 10.7433 4.15062 10.7867 4.43268 10.7909C4.69374 10.8069 4.95433 10.7534 5.18617 10.6363C5.34858 10.5476 5.44735 10.3798 5.4432 10.1995C5.44428 10.0741 5.39296 9.95353 5.30087 9.86519C5.18635 9.75648 5.05376 9.66714 4.90864 9.60087C4.7412 9.51992 4.49464 9.4132 4.16897 9.2807C3.90988 9.17999 3.66182 9.05457 3.42845 8.90629Z" fill="white"/>
</g>
<defs>
<linearGradient id="paint0_linear_1317_641" x1="1.59984" y1="3.96715" x2="7.31145" y2="14.1977" gradientUnits="userSpaceOnUse">
<stop stop-color="#058F92"/>
<stop offset="0.5" stop-color="#038489"/>
<stop offset="1" stop-color="#026D71"/>
</linearGradient>
<clipPath id="clip0_1317_641">
<rect width="18" height="18" fill="white"/>
</clipPath>
</defs>
</svg>
