<svg width="120" height="186" viewBox="0 0 120 186" fill="none" xmlns="http://www.w3.org/2000/svg">
<g clip-path="url(#clip0_1240_1821)">
<path d="M138.583 86.5542L91.4148 145.494L65.3492 150.237L112.517 91.2966L138.583 86.5542Z" fill="#0F0F0F"/>
<path d="M80.1178 39.7574L138.58 86.5534L112.515 91.2958L52.7969 43.4994L80.1178 39.7574Z" fill="#0F0F0F"/>
<path d="M97.8509 17.5938L85.3597 33.2204L80.1198 39.758L52.7988 43.5001L70.5402 21.3525L97.8509 17.5938Z" stroke="white" stroke-width="0.5" stroke-linecap="round" stroke-linejoin="round"/>
<path d="M97.8532 17.5963L179.875 83.2362L114.806 164.211L91.4163 145.497L138.584 86.5566L80.1221 39.7606L85.362 33.223L97.8532 17.5963Z" stroke="white" stroke-width="0.5" stroke-linecap="round" stroke-linejoin="round"/>
<path d="M138.583 86.5542L91.4148 145.494L65.3492 150.237L112.517 91.2966L138.583 86.5542Z" stroke="white" stroke-width="0.5" stroke-linecap="round" stroke-linejoin="round"/>
<path d="M80.1178 39.7574L138.58 86.5534L112.515 91.2958L52.7969 43.4994L80.1178 39.7574Z" stroke="white" stroke-width="0.5" stroke-linecap="round" stroke-linejoin="round"/>
<path d="M91.4164 145.5L114.806 164.214L87.5128 167.987L65.3508 150.243L91.4164 145.5Z" stroke="white" stroke-width="0.5" stroke-linecap="round" stroke-linejoin="round"/>
</g>
<defs>
<clipPath id="clip0_1240_1821">
<rect width="131.901" height="131.901" fill="white" transform="translate(0 102.82) rotate(-51.2155)"/>
</clipPath>
</defs>
</svg>
