<svg width="54" height="47" viewBox="0 0 54 47" fill="none" xmlns="http://www.w3.org/2000/svg">
<path d="M40.388 0.00321313C44.4328 0.00321277 47.6686 1.42841 50.0955 4.27881C52.4068 7.24322 53.5625 11.0628 53.5625 15.7374C53.5625 22.1223 51.829 27.8801 48.362 33.0108C44.7795 38.2556 39.3479 42.6452 32.0673 46.1797L30.1604 43.4433C33.6274 41.391 36.8055 38.4836 39.6946 34.7211C42.4682 31.0726 43.855 27.3671 43.855 23.6045C43.855 22.5784 43.5661 21.7233 42.9882 21.0392C42.4104 20.4691 41.5437 20.184 40.388 20.184C37.4989 20.184 35.072 19.1579 33.1074 17.1056C31.0272 15.1673 29.9871 12.773 29.9871 9.9226C29.9871 7.0722 31.0272 4.67787 33.1074 2.73959C35.072 0.915338 37.4989 0.00321338 40.388 0.00321313ZM10.3987 0.00321575C14.4435 0.00321539 17.6793 1.42841 20.1062 4.27881C22.4175 7.24322 23.5732 11.0628 23.5732 15.7374C23.5732 22.1223 21.8397 27.8801 18.3727 33.0108C14.7902 38.2556 9.35862 42.6452 2.07798 46.1797L0.171146 43.4433C3.63812 41.391 6.81617 38.4836 9.70532 34.7211C12.4789 31.0726 13.8657 27.3671 13.8657 23.6045C13.8657 22.5784 13.5768 21.7233 12.9989 21.0392C12.4211 20.4691 11.5544 20.184 10.3987 20.184C7.50957 20.184 5.08269 19.1579 3.11807 17.1056C1.03788 15.1673 -0.002204 12.773 -0.00220425 9.9226C-0.0022045 7.0722 1.03788 4.67787 3.11807 2.73959C5.08268 0.915341 7.50957 0.003216 10.3987 0.00321575Z" fill="#734EE1"/>
</svg>
