<svg width="550" height="550" viewBox="0 0 550 550" fill="none" xmlns="http://www.w3.org/2000/svg">
<path d="M328.989 290.062L328.784 359.685L270.977 326.325L271.164 256.703L328.989 290.062Z" fill="#734EE1" stroke="white" stroke-linecap="round" stroke-linejoin="round"/>
<path d="M386.435 256.703L386.248 326.325L328.781 359.685L328.986 290.062L386.435 256.703Z" fill="#0F0F0F" stroke="white" stroke-linecap="round" stroke-linejoin="round"/>
<path d="M386.431 256.704L328.981 290.063L271.156 256.704L328.623 223.344L386.431 256.704Z" fill="#0F0F0F" stroke="white" stroke-linecap="round" stroke-linejoin="round"/>
<path d="M272.341 323.078L272.136 392.701L214.328 359.341L214.515 289.719L272.341 323.078Z" fill="#734EE1" stroke="white" stroke-linecap="round" stroke-linejoin="round"/>
<path d="M329.787 289.719L329.6 359.341L272.133 392.701L272.337 323.078L329.787 289.719Z" fill="#0F0F0F" stroke="white" stroke-linecap="round" stroke-linejoin="round"/>
<path d="M329.782 289.72L272.333 323.079L214.508 289.72L271.975 256.359L329.782 289.72Z" fill="#0F0F0F" stroke="white" stroke-linecap="round" stroke-linejoin="round"/>
<path d="M215.692 357.281L215.488 426.904L157.68 393.544L157.867 323.922L215.692 357.281Z" fill="#734EE1" stroke="white" stroke-linecap="round" stroke-linejoin="round"/>
<path d="M273.138 323.922L272.951 393.544L215.484 426.904L215.689 357.281L273.138 323.922Z" fill="#0F0F0F" stroke="white" stroke-linecap="round" stroke-linejoin="round"/>
<path d="M273.134 323.923L215.685 357.282L157.859 323.923L215.326 290.562L273.134 323.923Z" fill="#0F0F0F" stroke="white" stroke-linecap="round" stroke-linejoin="round"/>
<path d="M328.989 216.945L328.784 286.568L270.977 253.208L271.164 183.586L328.989 216.945Z" fill="#734EE1" stroke="white" stroke-linecap="round" stroke-linejoin="round"/>
<path d="M386.435 183.586L386.248 253.208L328.781 286.568L328.986 216.945L386.435 183.586Z" fill="#0F0F0F" stroke="white" stroke-linecap="round" stroke-linejoin="round"/>
<path d="M386.431 183.587L328.981 216.946L271.156 183.587L328.623 150.227L386.431 183.587Z" fill="#0F0F0F" stroke="white" stroke-linecap="round" stroke-linejoin="round"/>
<path d="M272.341 249.968L272.136 319.592L214.328 286.231L214.515 216.609L272.341 249.968Z" fill="#734EE1" stroke="white" stroke-linecap="round" stroke-linejoin="round"/>
<path d="M329.787 216.609L329.6 286.231L272.133 319.592L272.337 249.968L329.787 216.609Z" fill="#0F0F0F" stroke="white" stroke-linecap="round" stroke-linejoin="round"/>
<path d="M329.782 216.61L272.333 249.97L214.508 216.61L271.975 183.25L329.782 216.61Z" fill="#0F0F0F" stroke="white" stroke-linecap="round" stroke-linejoin="round"/>
<path d="M328.989 142.648L328.784 212.271L270.977 178.911L271.164 109.289L328.989 142.648Z" fill="#734EE1" stroke="white" stroke-linecap="round" stroke-linejoin="round"/>
<path d="M386.435 109.289L386.248 178.911L328.781 212.271L328.986 142.648L386.435 109.289Z" fill="#0F0F0F" stroke="white" stroke-linecap="round" stroke-linejoin="round"/>
<path d="M386.431 109.29L328.981 142.649L271.156 109.29L328.623 75.9297L386.431 109.29Z" fill="#0F0F0F" stroke="white" stroke-linecap="round" stroke-linejoin="round"/>
<path d="M272.341 175.672L272.136 245.295L214.328 211.934L214.515 142.312L272.341 175.672Z" fill="#734EE1" stroke="white" stroke-linecap="round" stroke-linejoin="round"/>
<path d="M329.787 142.312L329.6 211.934L272.133 245.295L272.337 175.672L329.787 142.312Z" fill="#0F0F0F" stroke="white" stroke-linecap="round" stroke-linejoin="round"/>
<path d="M329.782 142.314L272.333 175.673L214.508 142.314L271.975 108.953L329.782 142.314Z" fill="#0F0F0F" stroke="white" stroke-linecap="round" stroke-linejoin="round"/>
<path d="M215.692 208.687L215.488 278.31L157.68 244.95L157.867 175.328L215.692 208.687Z" fill="#734EE1" stroke="white" stroke-linecap="round" stroke-linejoin="round"/>
<path d="M273.138 175.328L272.951 244.95L215.484 278.31L215.689 208.687L273.138 175.328Z" fill="#0F0F0F" stroke="white" stroke-linecap="round" stroke-linejoin="round"/>
<path d="M273.134 175.329L215.685 208.688L157.859 175.329L215.326 141.969L273.134 175.329Z" fill="#0F0F0F" stroke="white" stroke-linecap="round" stroke-linejoin="round"/>
<path d="M390.341 324.257L390.136 393.881L332.328 360.52L332.515 290.898L390.341 324.257Z" fill="#734EE1" stroke="white" stroke-linecap="round" stroke-linejoin="round"/>
<path d="M447.787 290.898L447.6 360.52L390.133 393.881L390.337 324.257L447.787 290.898Z" fill="#0F0F0F" stroke="white" stroke-linecap="round" stroke-linejoin="round"/>
<path d="M447.782 290.9L390.333 324.259L332.508 290.9L389.975 257.539L447.782 290.9Z" fill="#0F0F0F" stroke="white" stroke-linecap="round" stroke-linejoin="round"/>
<path d="M333.692 357.281L333.488 426.904L275.68 393.544L275.867 323.922L333.692 357.281Z" fill="#734EE1" stroke="white" stroke-linecap="round" stroke-linejoin="round"/>
<path d="M391.138 323.922L390.951 393.544L333.484 426.904L333.689 357.281L391.138 323.922Z" fill="#0F0F0F" stroke="white" stroke-linecap="round" stroke-linejoin="round"/>
<path d="M391.134 323.923L333.685 357.282L275.859 323.923L333.326 290.562L391.134 323.923Z" fill="#0F0F0F" stroke="white" stroke-linecap="round" stroke-linejoin="round"/>
<path d="M395.067 392.664L394.863 462.287L337.055 428.927L337.242 359.305L395.067 392.664Z" fill="#734EE1" stroke="white" stroke-linecap="round" stroke-linejoin="round"/>
<path d="M452.513 359.305L452.326 428.927L394.859 462.287L395.064 392.664L452.513 359.305Z" fill="#0F0F0F" stroke="white" stroke-linecap="round" stroke-linejoin="round"/>
<path d="M452.509 359.306L395.06 392.665L337.234 359.306L394.701 325.945L452.509 359.306Z" fill="#0F0F0F" stroke="white" stroke-linecap="round" stroke-linejoin="round"/>
<path d="M252.278 474.023L252.073 543.646L194.266 510.286L194.453 440.664L252.278 474.023Z" fill="#734EE1" stroke="white" stroke-linecap="round" stroke-linejoin="round"/>
<path d="M309.724 440.664L309.537 510.286L252.07 543.646L252.275 474.023L309.724 440.664Z" fill="#0F0F0F" stroke="white" stroke-linecap="round" stroke-linejoin="round"/>
<path d="M309.72 440.665L252.271 474.024L194.445 440.665L251.912 407.305L309.72 440.665Z" fill="#0F0F0F" stroke="white" stroke-linecap="round" stroke-linejoin="round"/>
<path d="M338.419 425.679L338.214 495.303L280.406 461.942L280.593 392.32L338.419 425.679Z" fill="#F7B500" stroke="white" stroke-linecap="round" stroke-linejoin="round"/>
<path d="M395.865 392.32L395.678 461.942L338.211 495.303L338.416 425.679L395.865 392.32Z" fill="#0F0F0F" stroke="white" stroke-linecap="round" stroke-linejoin="round"/>
<path d="M395.861 392.321L338.411 425.68L280.586 392.321L338.053 358.961L395.861 392.321Z" fill="#0F0F0F" stroke="white" stroke-linecap="round" stroke-linejoin="round"/>
<path d="M390.341 251.148L390.136 320.771L332.328 287.411L332.515 217.789L390.341 251.148Z" fill="#734EE1" stroke="white" stroke-linecap="round" stroke-linejoin="round"/>
<path d="M447.787 217.789L447.6 287.411L390.133 320.771L390.337 251.148L447.787 217.789Z" fill="#0F0F0F" stroke="white" stroke-linecap="round" stroke-linejoin="round"/>
<path d="M447.782 217.79L390.333 251.149L332.508 217.79L389.975 184.43L447.782 217.79Z" fill="#0F0F0F" stroke="white" stroke-linecap="round" stroke-linejoin="round"/>
<path d="M451.708 285.343L451.503 354.967L393.695 321.606L393.883 251.984L451.708 285.343Z" fill="#734EE1" stroke="white" stroke-linecap="round" stroke-linejoin="round"/>
<path d="M509.154 251.984L508.967 321.606L451.5 354.967L451.705 285.343L509.154 251.984Z" fill="#0F0F0F" stroke="white" stroke-linecap="round" stroke-linejoin="round"/>
<path d="M509.15 251.985L451.7 285.345L393.875 251.985L451.342 218.625L509.15 251.985Z" fill="#0F0F0F" stroke="white" stroke-linecap="round" stroke-linejoin="round"/>
<path d="M333.692 284.164L333.488 353.787L275.68 320.427L275.867 250.805L333.692 284.164Z" fill="#734EE1" stroke="white" stroke-linecap="round" stroke-linejoin="round"/>
<path d="M391.138 250.805L390.951 320.427L333.484 353.787L333.689 284.164L391.138 250.805Z" fill="#0F0F0F" stroke="white" stroke-linecap="round" stroke-linejoin="round"/>
<path d="M391.134 250.806L333.685 284.165L275.859 250.806L333.326 217.445L391.134 250.806Z" fill="#0F0F0F" stroke="white" stroke-linecap="round" stroke-linejoin="round"/>
<path d="M277.059 317.187L276.855 386.81L219.047 353.45L219.234 283.828L277.059 317.187Z" fill="#F7B500" stroke="white" stroke-linecap="round" stroke-linejoin="round"/>
<path d="M334.506 283.828L334.318 353.45L276.852 386.81L277.056 317.187L334.506 283.828Z" fill="#0F0F0F" stroke="white" stroke-linecap="round" stroke-linejoin="round"/>
<path d="M334.501 283.829L277.052 317.188L219.227 283.829L276.693 250.469L334.501 283.829Z" fill="#0F0F0F" stroke="white" stroke-linecap="round" stroke-linejoin="round"/>
<path d="M448.169 73.07L447.964 142.693L390.156 109.333L390.343 39.7109L448.169 73.07Z" fill="#734EE1" stroke="white" stroke-linecap="round" stroke-linejoin="round"/>
<path d="M505.615 39.7109L505.428 109.333L447.961 142.693L448.166 73.07L505.615 39.7109Z" fill="#0F0F0F" stroke="white" stroke-linecap="round" stroke-linejoin="round"/>
<path d="M505.611 39.712L448.161 73.0711L390.336 39.712L447.803 6.35156L505.611 39.712Z" fill="#0F0F0F" stroke="white" stroke-linecap="round" stroke-linejoin="round"/>
<path d="M338.419 351.382L338.214 421.006L280.406 387.645L280.593 318.023L338.419 351.382Z" fill="#734EE1" stroke="white" stroke-linecap="round" stroke-linejoin="round"/>
<path d="M395.865 318.023L395.678 387.645L338.211 421.006L338.416 351.382L395.865 318.023Z" fill="#0F0F0F" stroke="white" stroke-linecap="round" stroke-linejoin="round"/>
<path d="M395.861 318.025L338.411 351.384L280.586 318.025L338.053 284.664L395.861 318.025Z" fill="#0F0F0F" stroke="white" stroke-linecap="round" stroke-linejoin="round"/>
<path d="M395.067 244.07L394.863 313.693L337.055 280.333L337.242 210.711L395.067 244.07Z" fill="#734EE1" stroke="white" stroke-linecap="round" stroke-linejoin="round"/>
<path d="M452.513 210.711L452.326 280.333L394.859 313.693L395.064 244.07L452.513 210.711Z" fill="#0F0F0F" stroke="white" stroke-linecap="round" stroke-linejoin="round"/>
<path d="M452.509 210.712L395.06 244.071L337.234 210.712L394.701 177.352L452.509 210.712Z" fill="#0F0F0F" stroke="white" stroke-linecap="round" stroke-linejoin="round"/>
<path d="M277.059 242.882L276.855 312.506L219.047 279.145L219.234 209.523L277.059 242.882Z" fill="#734EE1" stroke="white" stroke-linecap="round" stroke-linejoin="round"/>
<path d="M334.506 209.523L334.318 279.145L276.852 312.506L277.056 242.882L334.506 209.523Z" fill="#0F0F0F" stroke="white" stroke-linecap="round" stroke-linejoin="round"/>
<path d="M334.501 209.525L277.052 242.884L219.227 209.525L276.693 176.164L334.501 209.525Z" fill="#0F0F0F" stroke="white" stroke-linecap="round" stroke-linejoin="round"/>
<path d="M338.419 277.086L338.214 346.709L280.406 313.348L280.593 243.727L338.419 277.086Z" fill="#F7B500" stroke="white" stroke-linecap="round" stroke-linejoin="round"/>
<path d="M395.865 243.727L395.678 313.348L338.211 346.709L338.416 277.086L395.865 243.727Z" fill="#0F0F0F" stroke="white" stroke-linecap="round" stroke-linejoin="round"/>
<path d="M395.861 243.728L338.411 277.087L280.586 243.728L338.053 210.367L395.861 243.728Z" fill="#0F0F0F" stroke="white" stroke-linecap="round" stroke-linejoin="round"/>
<path d="M98.8562 282.984L98.6516 352.607L40.8438 319.247L41.031 249.625L98.8562 282.984Z" fill="#734EE1" stroke="white" stroke-linecap="round" stroke-linejoin="round"/>
<path d="M156.506 249.625L156.318 319.247L98.8516 352.607L99.0562 282.984L156.506 249.625Z" fill="#0F0F0F" stroke="white" stroke-linecap="round" stroke-linejoin="round"/>
<path d="M156.298 249.282L98.8487 282.641L41.0234 249.282L98.4902 215.922L156.298 249.282Z" fill="#0F0F0F" stroke="white" stroke-linecap="round" stroke-linejoin="round"/>
</svg>
