<svg width="150" height="80" viewBox="0 0 150 80" fill="none" xmlns="http://www.w3.org/2000/svg">
<path fill-rule="evenodd" clip-rule="evenodd" d="M30.7138 22H37.1469C45.0142 22 51.3919 28.3917 51.3919 36.2763V42.7237C51.3919 50.6083 45.0142 57 37.1469 57H30.7138C22.8465 57 16.4688 50.6083 16.4688 42.7237V36.2763C16.4688 28.3917 22.8465 22 30.7138 22ZM27.3801 29.658V32.1386H37.2177V36.4783H40.4763V29.658H27.3801ZM37.2177 42.4904H40.4763V49.3456H37.2177V49.3417H27.3801V46.8611H37.2177V42.4904ZM35.7512 40.761V38.267H30.0164V40.761H35.7512Z" fill="white"/>
<path d="M67.0193 32.4125H61.37V29.87H75.7277V32.4125H70.0535V49.1604H67.0193V32.4125Z" fill="white"/>
<path d="M120.842 46.6668L122.621 44.5691C124.007 45.9585 125.889 46.8496 127.747 46.8496C130.074 46.8496 131.382 45.7485 131.382 44.1254C131.382 42.3694 130.074 41.8189 128.296 41.0323L125.627 39.8791C123.771 39.0925 121.705 37.6248 121.705 34.8201C121.705 31.7792 124.373 29.4989 128.035 29.4989C129.119 29.5011 130.191 29.7175 131.193 30.1359C132.193 30.5542 133.102 31.1663 133.866 31.937L132.271 33.8768C131.069 32.802 129.734 32.147 128.035 32.147C126.073 32.147 124.791 33.0902 124.791 34.6362C124.791 36.2877 126.334 36.9166 127.903 37.5465L130.545 38.6736C132.821 39.643 134.469 41.0573 134.469 43.8893C134.469 46.9823 131.905 49.4987 127.694 49.4987C126.422 49.5052 125.161 49.2582 123.985 48.7721C122.809 48.2859 121.74 47.5703 120.842 46.6668Z" fill="white"/>
<path d="M92.9908 49.1103L88.0074 41.3272H84.4613V49.1103H81.0013V29.8244H88.1886C92.7189 29.8244 96.1235 31.2398 96.1235 35.4056C96.1235 38.3931 94.3034 40.1728 91.5297 40.9345L96.8981 49.107L92.9908 49.1103ZM84.4613 38.8947H87.7718C90.9634 38.8947 92.6928 37.7415 92.6928 35.409C92.6928 33.0764 90.9634 32.2648 87.7718 32.2648H84.4613V38.8947Z" fill="white"/>
<path fill-rule="evenodd" clip-rule="evenodd" d="M115.288 29.8765V36.5722H112.235V32.3124H103.023V29.8765H115.288ZM115.288 42.4627V49.1925H103.023V46.7566H112.235V42.4627H115.288ZM110.878 38.3224V40.7697H105.509V38.3224H110.878Z" fill="white"/>
</svg>
