<svg width="150" height="80" viewBox="0 0 150 80" fill="none" xmlns="http://www.w3.org/2000/svg">
<path d="M65.8672 40.4264C65.8672 35.9678 69.3139 32.3281 73.7887 32.3281C77.9006 32.3281 81.1962 35.9375 81.1962 40.2747C81.1962 40.7297 81.166 41.1846 81.1055 41.6093H69.4349C69.9186 44.0661 71.9141 45.3703 74.212 45.3703C75.7842 45.3703 77.2959 44.885 78.6262 44.0054L80.017 46.5532C78.2937 47.7361 76.2679 48.4033 74.1515 48.4033C69.7977 48.464 65.8672 45.5219 65.8672 40.4264ZM77.8704 39.0615C77.7494 38.0303 77.2354 37.09 76.4493 36.4228C75.6935 35.7555 74.6655 35.3915 73.6375 35.3915C71.642 35.3915 69.9186 36.8777 69.4349 39.0918H77.8704V39.0615Z" fill="white"/>
<path d="M83.3125 27.5312H86.7593V48.156H83.3125V27.5312Z" fill="white"/>
<path d="M88.875 40.4264C88.875 35.9678 92.3218 32.3281 96.7965 32.3281C100.908 32.3281 104.204 35.9375 104.204 40.2747C104.204 40.7297 104.144 41.1846 104.113 41.6093H92.4427C92.9265 44.0661 94.9219 45.3703 97.2198 45.3703C98.792 45.3703 100.334 44.9153 101.634 44.0357L103.025 46.5835C101.301 47.7664 99.2758 48.4337 97.1593 48.4337C92.8055 48.464 88.875 45.5219 88.875 40.4264ZM100.848 39.0615C100.727 38.0303 100.213 37.09 99.4269 36.4228C98.6711 35.7555 97.6431 35.3915 96.6151 35.3915C94.6196 35.3915 92.8962 36.8777 92.4125 39.0918H100.848V39.0615Z" fill="white"/>
<path d="M105.516 40.4264C105.516 35.9071 109.144 32.3281 113.709 32.3281C118.244 32.3281 121.903 35.9071 121.903 40.4264C121.903 44.9153 118.275 48.464 113.709 48.464C109.144 48.464 105.516 44.885 105.516 40.4264ZM118.365 40.4264C118.365 37.6966 116.34 35.6948 113.709 35.6948C111.079 35.6948 109.053 37.6966 109.053 40.4264C109.053 43.1258 111.079 45.1276 113.709 45.1276C116.34 45.1276 118.365 43.1258 118.365 40.4264Z" fill="white"/>
<path d="M122.742 46.2195L124.042 43.3685C125.04 44.1874 126.612 45.2186 128.91 45.2186C130.301 45.2186 131.964 44.703 131.964 43.5808C131.964 42.4889 130.392 42.1856 128.88 41.7306C125.977 40.9117 123.468 40.0321 123.468 36.999C123.468 33.966 126.552 32.3281 129.243 32.3281C131.54 32.3281 133.052 32.9044 134.745 33.9356L133.476 36.7564C132.206 35.9981 130.754 35.5735 129.273 35.6038C128.124 35.6038 126.975 36.1194 126.975 36.9384C126.975 37.9999 128.245 38.2426 129.605 38.5459C132.478 39.1828 135.471 40.3354 135.471 43.5201C135.471 47.1598 131.752 48.464 128.91 48.464C125.796 48.464 123.589 47.0081 122.742 46.2195Z" fill="white"/>
<path d="M20.2665 33.2619C21.1433 33.2619 21.8689 32.534 21.8689 31.6544C21.8689 30.7748 21.1433 30.0469 20.2665 30.0469C19.3897 30.0469 18.6641 30.7748 18.6641 31.6544C18.6641 32.534 19.3897 33.2619 20.2665 33.2619Z" fill="white"/>
<path d="M17.0712 23.2229C17.948 23.2229 18.6736 22.4949 18.6736 21.6153C18.6736 20.7357 17.948 20.0078 17.0712 20.0078C16.1944 20.0078 15.4688 20.7357 15.4688 21.6153C15.4688 22.4949 16.1944 23.2229 17.0712 23.2229Z" fill="white"/>
<path d="M57.4574 35.7178C56.9132 33.3823 56.0061 31.1075 54.8873 28.9844C54.8873 29.045 55.3711 33.4733 52.6196 36.9007C52.5289 37.022 52.4382 37.1433 52.3173 37.2646C52.3173 37.2646 52.3173 37.2949 52.287 37.2949C51.8032 37.8712 51.2287 38.3565 50.5938 38.8115C49.8379 39.3271 49.0517 39.6911 48.2051 39.9944C47.3887 40.2977 46.5119 40.51 45.4838 40.6616C44.8489 40.7526 44.1837 40.8436 43.5487 40.9043C41.0693 41.1469 38.4992 41.1773 36.0199 40.7223C34.0243 40.3583 32.0589 39.6911 30.154 39.0541C27.4025 38.1442 23.1996 38.2352 21.2343 41.8142C19.2387 45.4235 20.5993 50.0338 22.1111 52.2479C26.2233 58.314 33.7521 62.2267 41.0996 60.6495C45.7257 59.6486 49.7472 56.7368 52.8313 53.2185C57.0946 48.3353 58.9088 42.0568 57.4574 35.7178Z" fill="white"/>
<path d="M22.8479 22.7985C22.9991 22.9501 23.2108 23.0715 23.4224 23.1321C23.6341 23.1928 23.8457 23.2534 24.0876 23.2231H33.7935C34.0051 23.2231 34.247 23.3141 34.4285 23.4658C34.5796 23.6174 34.6704 23.86 34.6704 24.1027C34.6704 24.3453 34.5796 24.5577 34.4285 24.7396C34.247 24.8913 34.0354 25.0126 33.7935 25.0126H28.7743C28.3812 25.0429 27.9881 25.2249 27.6857 25.4979C27.3834 25.8012 27.2624 26.1955 27.2624 26.6201C27.2624 27.0144 27.4136 27.4391 27.6857 27.7424C27.9579 28.0457 28.3509 28.2276 28.7743 28.2276H38.2382C38.4499 28.2276 38.6918 28.3186 38.8732 28.4703C39.0244 28.6219 39.1151 28.8646 39.1151 29.1072C39.1151 29.3499 39.0244 29.5622 38.8732 29.7442C38.6918 29.9262 38.4499 30.0172 38.208 30.0172H25.5087C25.1157 30.0475 24.7226 30.2295 24.4202 30.5024C24.1481 30.8057 23.9969 31.2 23.9969 31.6247C23.9969 32.0493 24.1481 32.4436 24.4202 32.7469C24.7226 33.0502 25.1459 33.2019 25.539 33.2019H39.7198C42.9249 33.2019 45.6159 35.7193 45.7369 38.904C45.7671 39.5106 45.6764 40.1172 45.5252 40.6632C55.9568 39.086 54.9287 29.1072 54.8985 29.0162C54.6566 28.531 53.7193 27.2874 53.3262 26.8931C51.3608 24.7396 48.9722 23.0108 46.2811 21.8279C43.711 20.6147 40.8083 20.0081 37.9056 20.0081H24.0271C23.8155 19.9777 23.5736 20.0384 23.3619 20.0991C23.1503 20.1597 22.9689 20.281 22.7875 20.4327C22.6363 20.5843 22.4851 20.7663 22.3944 20.9786C22.3037 21.191 22.2734 21.4033 22.2734 21.6156C22.2734 21.8279 22.3037 22.0402 22.3944 22.2525C22.5456 22.4648 22.6665 22.6468 22.8479 22.7985Z" fill="url(#paint0_linear_1283_767)"/>
<defs>
<linearGradient id="paint0_linear_1283_767" x1="46.7765" y1="30.353" x2="55.0019" y2="44.0654" gradientUnits="userSpaceOnUse">
<stop stop-color="white"/>
<stop offset="1" stop-color="white" stop-opacity="0"/>
</linearGradient>
</defs>
</svg>
